<?xml version="1.0" standalone="no"?>
<!DOCTYPE svg PUBLIC "-//W3C//DTD SVG 20010904//EN"
 "http://www.w3.org/TR/2001/REC-SVG-20010904/DTD/svg10.dtd">
<svg version="1.0" xmlns="http://www.w3.org/2000/svg"
 width="407.000000pt" height="142.000000pt" viewBox="0 0 407.000000 142.000000"
 preserveAspectRatio="xMidYMid meet">

<g transform="translate(0.000000,142.000000) scale(0.100000,-0.100000)"
fill="#000000" stroke="none">
<path d="M1740 885 c0 -18 5 -25 20 -25 15 0 20 7 20 25 0 18 -5 25 -20 25
-15 0 -20 -7 -20 -25z"/>
<path d="M2190 735 c0 -173 0 -176 25 -200 16 -17 35 -25 60 -25 31 0 35 3 35
25 0 22 -4 25 -35 25 l-35 0 0 175 0 175 -25 0 -25 0 0 -175z"/>
<path d="M610 695 l0 -185 163 0 c220 0 207 -12 207 185 0 126 -3 156 -16 169
-13 13 -44 16 -185 16 l-169 0 0 -185z m325 5 l0 -135 -137 -3 -138 -3 0 134
c0 74 3 137 7 141 4 3 66 5 137 4 l131 -3 0 -135z"/>
<path d="M2490 695 l0 -185 185 0 185 0 0 25 0 25 -165 0 -165 0 0 160 c0 153
-1 160 -20 160 -19 0 -20 -7 -20 -185z"/>
<path d="M1040 790 c0 -19 7 -20 119 -20 130 0 145 -6 139 -57 l-3 -28 -127
-3 -128 -3 0 -69 c0 -96 7 -100 172 -100 l128 0 0 133 c0 174 7 167 -168 167
-125 0 -132 -1 -132 -20z m260 -190 l0 -41 -107 3 -108 3 -3 38 -3 37 110 0
111 0 0 -40z"/>
<path d="M1390 660 c0 -143 1 -150 20 -150 19 0 20 7 20 118 0 78 4 122 12
130 16 16 180 16 196 0 8 -8 12 -52 12 -130 0 -111 1 -118 20 -118 19 0 20 7
20 133 0 174 7 167 -168 167 l-132 0 0 -150z"/>
<path d="M1740 660 c0 -143 1 -150 20 -150 19 0 20 7 20 150 0 143 -1 150 -20
150 -19 0 -20 -7 -20 -150z"/>
<path d="M1867 792 c-14 -15 -17 -41 -17 -135 0 -150 -3 -147 172 -147 l128 0
0 25 0 24 -127 3 -128 3 -3 38 -3 37 130 0 131 0 0 68 c0 98 -7 102 -152 102
-99 0 -117 -3 -131 -18z m232 -36 c7 -8 11 -27 9 -43 l-3 -28 -105 0 -105 0
-3 28 c-6 48 11 57 108 57 64 0 91 -4 99 -14z"/>
<path d="M2906 795 c-21 -22 -29 -71 -24 -166 5 -115 11 -119 179 -119 l129 0
0 25 0 24 -127 3 -128 3 -3 38 -3 37 130 0 131 0 0 63 c0 102 -7 107 -150 107
-93 0 -122 -3 -134 -15z m232 -72 l3 -43 -105 0 -106 0 0 39 c0 22 6 42 13 45
6 2 53 4 102 3 l90 -2 3 -42z"/>
<path d="M3246 788 c-12 -17 -16 -49 -16 -130 0 -149 -1 -148 170 -148 l130 0
0 25 0 25 -125 0 c-125 0 -125 0 -131 25 -13 52 -5 55 131 55 l125 0 0 69 c0
98 -4 101 -150 101 -111 0 -120 -1 -134 -22z m228 -24 c11 -4 16 -19 16 -45
l0 -40 -107 3 -108 3 -3 28 c-6 48 11 57 103 57 46 0 90 -3 99 -6z"/>
</g>
</svg>
