<?xml version="1.0" standalone="no"?>
<!DOCTYPE svg PUBLIC "-//W3C//DTD SVG 20010904//EN"
 "http://www.w3.org/TR/2001/REC-SVG-20010904/DTD/svg10.dtd">
<svg version="1.0" xmlns="http://www.w3.org/2000/svg"
 width="2529.000000pt" height="1472.000000pt" viewBox="0 0 2529.000000 1472.000000"
 preserveAspectRatio="xMidYMid meet">

<g transform="translate(0.000000,1472.000000) scale(0.100000,-0.100000)"
fill="#000000" stroke="none">
<path d="M2156 14371 c-7 -49 -18 -55 -121 -72 l-80 -14 63 -6 c95 -9 112 -29
113 -138 2 -131 12 -151 27 -51 6 46 16 88 21 93 11 11 59 -13 131 -66 60 -44
59 -43 -43 70 -26 29 -47 58 -47 66 0 21 32 46 86 68 l49 19 -40 -5 c-114 -14
-135 -10 -135 23 0 48 -17 58 -24 13z"/>
<path d="M20844 14330 c-53 -21 -54 -30 -54 -372 l0 -317 24 -28 24 -28 1752
0 1752 0 24 28 24 28 0 319 0 319 -24 28 -24 28 -1739 2 c-966 1 -1748 -2
-1759 -7z m803 -262 c11 -13 23 -31 26 -40 5 -15 1 -18 -23 -18 -19 0 -30 5
-30 14 0 13 -20 26 -40 26 -34 0 -54 -86 -30 -131 14 -26 60 -26 67 1 4 14 14
20 34 20 29 0 29 0 16 -32 -25 -63 -124 -70 -161 -13 -9 14 -16 46 -16 75 0
84 28 119 96 120 30 0 46 -6 61 -22z m1028 -80 c21 -57 40 -109 42 -115 4 -9
-5 -13 -25 -13 -21 0 -31 6 -35 20 -4 16 -14 20 -45 20 -32 0 -42 -4 -47 -20
-4 -14 -15 -20 -35 -20 l-28 0 33 88 c18 48 38 99 44 115 7 19 18 27 34 27 21
0 28 -12 62 -102z m-455 62 c0 -11 7 -20 15 -20 8 0 15 -9 15 -20 0 -11 -7
-20 -15 -20 -11 0 -15 -12 -15 -45 0 -33 4 -45 15 -45 8 0 15 -9 15 -19 0 -22
-22 -33 -47 -24 -27 10 -33 23 -33 79 0 37 -4 54 -15 58 -8 3 -15 12 -15 21 0
8 7 15 15 15 8 0 15 9 15 20 0 15 7 20 25 20 18 0 25 -5 25 -20z m1440 0 c0
-11 7 -20 15 -20 8 0 15 -9 15 -20 0 -11 -7 -20 -15 -20 -24 0 -20 -76 5 -90
20 -11 28 -40 11 -40 -5 0 -16 -3 -24 -6 -29 -11 -57 32 -57 86 0 28 -4 50
-10 50 -5 0 -10 9 -10 20 0 11 5 20 10 20 6 0 10 9 10 20 0 15 7 20 25 20 18
0 25 -5 25 -20z m-1860 -45 c0 -17 -6 -25 -22 -27 -20 -3 -23 -10 -26 -60 -3
-54 -5 -58 -27 -58 -25 0 -25 1 -25 85 l0 86 35 -3 c19 -1 37 1 41 5 12 11 24
-3 24 -28z m315 2 c9 -14 15 -45 15 -85 l0 -63 -32 0 c-18 0 -45 0 -61 0 -39
-1 -59 18 -55 55 3 27 9 33 46 46 23 8 42 18 42 22 0 12 -28 10 -35 -2 -8 -13
-42 -13 -50 1 -4 5 1 19 10 29 30 34 96 32 120 -3z m923 -12 c6 -12 8 -26 5
-29 -12 -12 -44 -6 -49 9 -9 23 -41 18 -47 -7 -9 -34 3 -68 23 -68 11 0 22 5
25 10 3 6 17 10 30 10 35 0 20 -39 -22 -56 -28 -12 -39 -12 -61 -2 -72 35 -63
154 13 170 32 7 71 -11 83 -37z m169 13 c12 -13 18 -36 18 -64 0 -56 -27 -86
-80 -86 -53 0 -80 30 -80 86 0 29 6 51 19 64 31 35 91 35 123 0z m361 4 c7 -9
12 -44 12 -84 0 -66 -1 -68 -25 -68 -23 0 -24 4 -27 63 -3 54 -5 62 -23 62
-18 0 -20 -8 -23 -62 -3 -59 -4 -63 -27 -63 -25 0 -25 1 -25 85 l0 85 40 -2
c22 -1 43 1 46 5 9 8 37 -3 52 -21z m-1625 0 c9 -10 20 -33 23 -50 l7 -32 -56
0 c-48 0 -55 -2 -50 -16 5 -12 15 -15 44 -11 44 6 59 -7 35 -31 -23 -23 -83
-19 -112 9 -31 29 -32 86 -3 123 25 32 86 37 112 8z m450 0 c9 -10 20 -33 23
-50 l7 -32 -56 0 c-48 0 -55 -2 -50 -16 5 -12 15 -15 44 -11 44 6 59 -7 35
-31 -23 -23 -83 -19 -112 9 -31 29 -32 86 -3 123 25 32 86 37 112 8z m469 1
c27 -24 23 -53 -7 -53 -16 0 -25 6 -25 16 0 10 -7 14 -22 12 -20 -3 -23 -9
-23 -43 0 -34 3 -40 23 -43 12 -2 22 1 22 7 0 6 11 11 25 11 42 0 23 -45 -27
-63 -24 -9 -76 11 -88 33 -17 32 -12 94 10 118 25 27 85 30 112 5z m438 -49
c0 -62 1 -65 23 -62 20 3 22 9 25 66 3 58 4 62 27 62 25 0 25 -1 25 -85 l0
-86 -32 0 c-18 0 -46 0 -62 0 -43 -1 -56 24 -56 103 0 66 1 68 25 68 24 0 25
-2 25 -66z"/>
<path d="M22601 13987 c-14 -37 -14 -37 9 -37 21 0 24 12 10 45 -7 19 -9 18
-19 -8z"/>
<path d="M22037 13923 c-14 -13 -6 -24 15 -21 27 4 36 28 11 28 -11 0 -23 -3
-26 -7z"/>
<path d="M23120 13964 c-12 -31 3 -64 29 -64 23 0 36 42 21 70 -15 28 -39 25
-50 -6z"/>
<path d="M21866 13975 c-4 -11 2 -15 24 -15 22 0 28 4 24 15 -4 8 -14 15 -24
15 -10 0 -20 -7 -24 -15z"/>
<path d="M22316 13975 c-4 -11 2 -15 24 -15 22 0 28 4 24 15 -4 8 -14 15 -24
15 -10 0 -20 -7 -24 -15z"/>
<path d="M405 14173 c-36 -10 -77 -45 -91 -79 -20 -47 -17 -118 5 -162 27 -52
70 -74 155 -79 60 -4 78 -1 116 19 50 26 90 89 90 143 0 41 -38 114 -73 139
-22 16 -46 21 -105 23 -42 1 -86 -1 -97 -4z m181 -77 c33 -38 40 -73 23 -120
-19 -55 -64 -79 -137 -73 -93 7 -143 84 -106 162 24 51 56 66 133 62 55 -3 67
-7 87 -31z"/>
<path d="M740 14020 l0 -160 30 0 30 0 0 135 0 135 78 0 c83 0 122 -16 122
-49 0 -28 -28 -45 -82 -51 l-49 -5 61 -82 c57 -77 65 -83 97 -83 40 0 42 -7
-25 85 -26 35 -30 45 -17 45 31 0 75 55 75 93 0 75 -49 96 -222 97 l-98 0 0
-160z"/>
<path d="M1140 14020 l0 -160 30 0 30 0 0 160 0 160 -30 0 -30 0 0 -160z"/>
<path d="M1343 14159 c-81 -40 -108 -161 -53 -239 49 -69 174 -91 260 -47 59
30 82 64 88 130 6 74 -23 131 -81 158 -59 26 -159 26 -214 -2z m203 -63 c28
-28 34 -41 34 -78 0 -50 -18 -82 -60 -103 -65 -34 -169 -6 -190 51 -20 52 -12
94 24 130 31 31 39 34 96 34 57 0 65 -3 96 -34z"/>
<path d="M1700 14020 l0 -160 30 0 30 0 0 118 1 117 112 -118 c91 -95 117
-117 140 -117 l27 0 0 161 0 160 -27 -3 -28 -3 -5 -113 -5 -114 -105 116 c-93
102 -109 116 -137 116 l-33 0 0 -160z"/>
<path d="M4890 14041 l0 -39 -39 5 c-32 4 -41 2 -55 -18 -20 -30 -21 -98 -1
-126 13 -19 24 -22 70 -21 l55 2 0 118 c0 98 -3 118 -15 118 -11 0 -15 -11
-15 -39z m-19 -61 c14 -8 19 -21 19 -56 0 -38 -4 -46 -25 -56 -21 -9 -29 -9
-42 5 -23 22 -21 87 3 104 21 16 20 16 45 3z"/>
<path d="M8560 13960 c0 -100 3 -120 15 -120 13 0 15 20 15 120 0 100 -2 120
-15 120 -12 0 -15 -20 -15 -120z"/>
<path d="M8910 14042 c0 -37 -1 -38 -34 -34 -27 3 -37 -1 -55 -23 -27 -35 -27
-85 0 -119 18 -22 27 -26 70 -24 l49 2 0 118 c0 98 -3 118 -15 118 -11 0 -15
-11 -15 -38z m-19 -62 c36 -20 22 -120 -17 -120 -23 0 -44 31 -44 65 0 18 7
41 16 49 18 19 20 19 45 6z"/>
<path d="M9820 13960 c0 -100 3 -120 15 -120 8 0 15 5 15 12 0 9 3 9 12 0 7
-7 24 -12 39 -12 36 0 59 33 59 85 0 52 -23 85 -59 85 -15 0 -32 -5 -39 -12
-9 -9 -12 -2 -12 35 0 35 -4 47 -15 47 -12 0 -15 -20 -15 -120z m95 16 c23
-17 24 -81 1 -104 -12 -13 -20 -13 -41 -4 -21 10 -25 18 -25 56 0 32 5 48 18
55 22 14 25 13 47 -3z"/>
<path d="M3061 13962 c-46 -119 -46 -122 -28 -122 7 0 18 14 24 30 10 27 15
30 58 30 42 0 47 -2 56 -30 6 -16 17 -30 25 -30 8 0 14 2 14 5 0 22 -85 225
-95 225 -7 0 -31 -48 -54 -108z m88 -29 c1 -8 -12 -13 -34 -13 -40 0 -41 4
-18 62 l17 42 17 -40 c10 -21 18 -45 18 -51z"/>
<path d="M3240 13955 c0 -96 3 -115 15 -115 11 0 15 12 15 45 l0 45 43 0 c57
0 87 22 87 63 0 18 -4 37 -8 44 -12 18 -59 33 -108 33 l-44 0 0 -115z m114 79
c10 -4 16 -18 16 -35 0 -33 -23 -49 -69 -49 -30 0 -31 1 -31 45 0 45 0 45 34
45 19 0 41 -3 50 -6z"/>
<path d="M3450 13955 c0 -96 3 -115 15 -115 12 0 15 19 15 115 0 96 -3 115
-15 115 -12 0 -15 -19 -15 -115z"/>
<path d="M4300 13956 c0 -96 3 -116 15 -116 11 0 15 12 15 45 l0 45 45 0 c75
0 110 57 66 111 -14 18 -31 23 -80 27 l-61 4 0 -116z m120 69 c29 -35 -6 -74
-67 -75 -21 0 -23 5 -23 45 l0 45 39 0 c22 0 44 -6 51 -15z"/>
<path d="M6180 13955 c0 -96 3 -115 15 -115 11 0 15 12 15 45 l0 45 43 0 c57
0 87 22 87 63 0 18 -4 37 -8 44 -12 18 -59 33 -108 33 l-44 0 0 -115z m114 79
c10 -4 16 -18 16 -35 0 -33 -23 -49 -69 -49 -30 0 -31 1 -31 45 0 45 0 45 34
45 19 0 41 -3 50 -6z"/>
<path d="M6490 14055 c0 -8 7 -15 15 -15 8 0 15 7 15 15 0 8 -7 15 -15 15 -8
0 -15 -7 -15 -15z"/>
<path d="M6735 14061 c-7 -12 12 -24 25 -16 11 7 4 25 -10 25 -5 0 -11 -4 -15
-9z"/>
<path d="M7770 13955 c0 -96 3 -115 15 -115 11 0 15 11 15 39 0 23 6 44 15 51
17 14 16 15 64 -47 18 -24 40 -43 48 -43 17 0 18 -1 -44 84 l-33 44 40 45 c43
48 47 57 28 57 -7 0 -36 -26 -65 -57 l-52 -58 -1 58 c0 44 -3 57 -15 57 -12 0
-15 -19 -15 -115z"/>
<path d="M9420 13955 c0 -94 3 -115 14 -115 11 0 16 15 18 53 l3 52 55 0 55 0
3 -52 c2 -39 7 -53 18 -53 12 0 14 18 12 112 -2 78 -7 113 -15 116 -9 2 -13
-11 -13 -47 l0 -51 -60 0 -60 0 0 50 c0 38 -4 50 -15 50 -12 0 -15 -19 -15
-115z"/>
<path d="M19340 13956 l0 -116 65 0 c37 0 65 4 65 10 0 6 -22 10 -50 10 l-49
0 -3 102 c-2 70 -7 103 -15 106 -10 3 -13 -24 -13 -112z"/>
<path d="M19957 14063 c-4 -3 -7 -55 -7 -115 0 -89 3 -108 15 -108 12 0 15 19
15 115 0 105 -5 127 -23 108z"/>
<path d="M5320 14030 c0 -11 -7 -20 -15 -20 -19 0 -20 -16 0 -23 10 -4 15 -26
17 -74 3 -66 4 -68 31 -71 29 -4 37 12 12 22 -11 4 -15 21 -15 66 0 47 3 60
15 60 8 0 15 5 15 10 0 6 -7 10 -15 10 -8 0 -15 9 -15 20 0 11 -7 20 -15 20
-8 0 -15 -9 -15 -20z"/>
<path d="M3548 13999 c-21 -12 -24 -52 -5 -66 6 -6 26 -15 42 -20 20 -6 30
-16 30 -29 0 -24 -37 -31 -55 -9 -13 16 -40 21 -40 7 0 -18 37 -42 64 -42 40
0 66 17 66 44 0 28 -15 42 -53 51 -33 9 -46 33 -26 46 19 12 25 11 43 -6 16
-17 36 -20 36 -6 0 33 -65 52 -102 30z"/>
<path d="M4490 13925 c0 -68 3 -85 15 -85 11 0 15 16 17 68 3 61 5 67 26 70
12 2 22 10 22 18 0 17 -22 18 -38 2 -9 -9 -12 -9 -12 0 0 7 -7 12 -15 12 -12
0 -15 -16 -15 -85z"/>
<path d="M4611 13984 c-45 -57 -12 -144 54 -144 47 0 75 32 75 85 0 78 -84
116 -129 59z m83 -10 c32 -32 11 -114 -29 -114 -41 0 -60 76 -28 112 20 22 37
23 57 2z"/>
<path d="M4960 13941 c0 -87 12 -102 81 -99 l49 2 0 83 c0 49 -4 83 -10 83 -6
0 -10 -26 -10 -59 0 -41 -5 -65 -16 -75 -38 -39 -64 -10 -64 71 0 49 -3 63
-15 63 -12 0 -15 -14 -15 -69z"/>
<path d="M5151 13984 c-44 -56 -12 -144 53 -144 29 0 66 24 66 43 0 12 -21 7
-36 -8 -33 -32 -74 -4 -74 50 0 56 47 86 72 45 15 -23 38 -27 38 -7 0 23 -35
47 -68 47 -21 0 -37 -8 -51 -26z"/>
<path d="M5426 13991 c-27 -29 -12 -57 37 -74 50 -16 61 -43 21 -53 -19 -5
-30 -2 -39 10 -15 20 -35 21 -35 1 0 -36 86 -48 114 -16 32 35 13 59 -66 85
-25 7 -23 33 3 41 13 4 27 1 39 -10 27 -24 44 -15 25 13 -21 28 -75 30 -99 3z"/>
<path d="M6380 13923 c0 -66 3 -83 15 -83 11 0 15 16 17 68 3 61 5 67 26 70
41 6 26 31 -18 29 l-40 -1 0 -83z"/>
<path d="M6490 13925 c0 -69 3 -85 15 -85 12 0 15 16 15 85 0 69 -3 85 -15 85
-12 0 -15 -16 -15 -85z"/>
<path d="M6587 13997 c-38 -27 -38 -117 0 -144 9 -7 29 -13 43 -13 29 0 81 41
61 48 -7 2 -20 -3 -30 -12 -37 -34 -75 -9 -75 49 0 59 49 88 76 45 19 -29 42
-27 27 3 -7 12 -17 25 -23 29 -17 12 -60 9 -79 -5z"/>
<path d="M6730 13925 c0 -69 3 -85 15 -85 12 0 15 16 15 85 0 69 -3 85 -15 85
-12 0 -15 -16 -15 -85z"/>
<path d="M6810 13923 c0 -67 3 -83 15 -83 12 0 15 14 15 65 0 55 3 66 21 75
35 19 49 -3 49 -76 0 -50 3 -64 15 -64 12 0 15 14 15 69 0 87 -11 101 -80 98
l-50 -2 0 -82z"/>
<path d="M7001 13984 c-27 -34 -27 -84 0 -119 18 -22 28 -26 56 -23 29 4 33 1
31 -16 -3 -24 -51 -34 -73 -16 -8 6 -16 7 -19 2 -9 -15 22 -35 54 -35 57 0 70
24 70 132 l0 97 -49 2 c-43 2 -52 -2 -70 -24z m70 -4 c36 -20 22 -120 -17
-120 -40 0 -59 77 -27 112 19 21 19 21 44 8z"/>
<path d="M7960 13925 c0 -69 3 -85 15 -85 12 0 15 14 15 65 0 61 2 66 26 77
37 17 54 -9 54 -84 0 -32 4 -58 10 -58 15 0 13 143 -2 158 -7 7 -24 12 -38 12
-14 0 -31 -5 -38 -12 -9 -9 -12 -9 -12 0 0 7 -7 12 -15 12 -12 0 -15 -16 -15
-85z"/>
<path d="M8151 13984 c-45 -57 -12 -144 54 -144 47 0 75 32 75 85 0 78 -84
116 -129 59z m83 -10 c32 -32 11 -114 -29 -114 -41 0 -60 76 -28 112 20 22 37
23 57 2z"/>
<path d="M8313 13993 c2 -10 13 -48 23 -85 10 -38 24 -68 31 -68 6 0 20 25 29
55 10 30 21 55 24 55 3 0 14 -25 24 -55 9 -30 23 -55 29 -55 7 0 21 30 31 68
10 37 21 75 23 85 4 11 0 17 -9 17 -10 0 -19 -19 -28 -60 -7 -33 -16 -58 -19
-55 -3 4 -13 30 -21 58 -21 68 -41 68 -59 0 -8 -29 -17 -53 -22 -53 -4 0 -13
25 -20 55 -8 36 -17 55 -27 55 -9 0 -12 -7 -9 -17z"/>
<path d="M8651 13984 c-44 -56 -12 -144 53 -144 38 0 76 23 57 35 -7 4 -18 2
-24 -4 -24 -24 -77 0 -77 35 0 10 14 14 55 14 52 0 55 1 55 25 0 61 -81 87
-119 39z m77 -6 c24 -24 13 -38 -28 -38 -43 0 -49 9 -24 34 19 19 36 20 52 4z"/>
<path d="M9001 13984 c-27 -34 -27 -84 0 -119 18 -22 28 -26 56 -23 29 4 33 1
31 -16 -3 -24 -51 -34 -73 -16 -8 6 -16 7 -19 2 -9 -15 22 -35 54 -35 57 0 70
24 70 132 l0 97 -49 2 c-43 2 -52 -2 -70 -24z m70 -4 c36 -20 22 -120 -17
-120 -40 0 -59 77 -27 112 19 21 19 21 44 8z"/>
<path d="M9181 13984 c-44 -56 -12 -144 53 -144 38 0 76 23 57 35 -7 4 -18 2
-24 -4 -24 -24 -77 0 -77 35 0 10 14 14 55 14 52 0 55 1 55 25 0 61 -81 87
-119 39z m77 -6 c24 -24 13 -38 -28 -38 -43 0 -49 9 -24 34 19 19 36 20 52 4z"/>
<path d="M9650 13937 c0 -49 4 -78 13 -85 7 -6 36 -10 65 -10 l52 1 0 84 c0
67 -3 83 -15 83 -12 0 -15 -14 -15 -65 0 -55 -3 -66 -21 -75 -37 -20 -48 -6
-51 66 -2 43 -8 69 -15 72 -10 3 -13 -16 -13 -71z"/>
<path d="M19521 13984 c-45 -57 -12 -144 54 -144 47 0 75 32 75 85 0 78 -84
116 -129 59z m83 -10 c32 -32 11 -114 -29 -114 -41 0 -60 76 -28 112 20 22 37
23 57 2z"/>
<path d="M19701 13984 c-27 -34 -27 -84 0 -119 18 -22 28 -26 56 -23 29 4 33
1 31 -16 -3 -24 -51 -34 -73 -16 -8 6 -16 7 -19 2 -9 -15 22 -35 54 -35 57 0
70 24 70 132 l0 97 -49 2 c-43 2 -52 -2 -70 -24z m70 -4 c36 -20 22 -120 -17
-120 -40 0 -59 77 -27 112 19 21 19 21 44 8z"/>
<path d="M20030 13925 c0 -69 3 -85 15 -85 12 0 15 14 15 65 0 61 2 66 26 77
37 17 54 -9 54 -84 0 -32 4 -58 10 -58 15 0 13 143 -2 158 -7 7 -24 12 -38 12
-14 0 -31 -5 -38 -12 -9 -9 -12 -9 -12 0 0 7 -7 12 -15 12 -12 0 -15 -16 -15
-85z"/>
<path d="M1140 13720 c0 -33 4 -60 10 -60 6 0 10 11 10 25 0 23 4 25 40 25 33
0 40 -3 40 -19 0 -11 5 -23 10 -26 6 -4 10 17 10 55 0 38 -4 59 -10 55 -5 -3
-10 -15 -10 -26 0 -16 -7 -19 -40 -19 -36 0 -40 3 -40 25 0 14 -4 25 -10 25
-6 0 -10 -27 -10 -60z"/>
<path d="M1320 13720 l0 -60 53 2 c50 1 50 2 10 5 -35 3 -43 8 -43 24 0 15 7
19 35 19 19 0 35 5 35 10 0 6 -16 10 -35 10 -24 0 -35 5 -35 15 0 11 11 15 40
15 22 0 40 5 40 10 0 6 -22 10 -50 10 l-50 0 0 -60z"/>
<path d="M1487 13724 c-27 -55 -29 -80 -5 -56 16 16 85 15 91 0 2 -7 7 -10 11
-7 9 9 -45 119 -59 119 -6 0 -23 -25 -38 -56z m58 -1 c5 -20 3 -23 -19 -23
-30 0 -30 0 -14 35 12 27 22 24 33 -12z"/>
<path d="M1640 13720 l0 -60 58 2 c56 2 56 2 10 5 l-48 4 0 55 c0 29 -4 54
-10 54 -6 0 -10 -27 -10 -60z"/>
<path d="M1740 13770 c0 -5 14 -10 30 -10 29 0 30 -1 30 -50 0 -27 5 -50 10
-50 6 0 10 23 10 50 0 47 2 50 25 50 14 0 25 5 25 10 0 6 -28 10 -65 10 -37 0
-65 -4 -65 -10z"/>
<path d="M1918 13774 c-12 -11 -10 -102 2 -109 6 -4 10 5 10 19 0 24 3 26 45
26 42 0 45 -2 45 -26 0 -14 4 -23 10 -19 6 3 10 28 10 55 0 27 -4 52 -10 55
-6 4 -10 -5 -10 -19 0 -24 -3 -26 -44 -26 -41 0 -45 2 -48 26 -2 14 -6 22 -10
18z"/>
<path d="M0 6570 l0 -6570 143 0 c79 0 168 4 198 9 30 6 88 15 129 21 41 6
102 15 135 20 33 5 96 14 140 20 44 6 105 15 135 20 30 5 91 14 135 20 44 6
105 15 135 20 30 5 91 14 135 20 44 6 105 15 135 20 30 5 91 14 135 20 168 24
222 32 275 40 30 5 91 14 135 20 44 6 105 15 135 20 30 5 91 14 135 20 44 6
105 15 135 20 30 5 91 14 135 20 44 6 109 16 145 21 106 16 180 27 265 39 44
6 105 15 135 20 30 5 91 14 135 20 44 6 105 15 135 20 30 5 91 14 135 20 168
24 222 32 275 40 30 5 91 14 135 20 44 6 105 15 135 20 30 5 91 14 135 20 44
6 105 15 135 20 30 5 91 14 135 20 44 6 105 15 135 20 30 5 91 14 135 20 168
24 222 32 275 40 30 5 91 14 135 20 44 6 105 15 135 20 30 5 91 14 135 20 44
6 105 15 135 20 30 5 91 14 135 20 168 24 222 32 275 40 30 5 91 14 135 20 44
6 105 15 135 20 30 5 91 14 135 20 44 6 105 15 135 20 30 5 91 14 135 20 44 6
105 15 135 20 30 5 91 14 135 20 168 24 222 32 275 40 30 5 91 14 135 20 44 6
105 15 135 20 30 5 91 14 135 20 44 6 105 15 135 20 30 5 91 14 135 20 168 24
222 32 275 40 30 5 91 14 135 20 44 6 105 15 135 20 30 5 91 14 135 20 44 6
105 15 135 20 30 5 91 14 135 20 44 6 105 15 135 20 30 5 91 14 135 20 168 24
222 32 275 40 30 5 91 14 135 20 44 6 105 15 135 20 30 5 91 14 135 20 44 6
105 15 135 20 30 5 91 14 135 20 44 6 105 15 135 20 53 8 107 16 275 40 44 6
105 15 135 20 30 5 91 14 135 20 44 6 105 15 135 20 30 5 91 14 135 20 44 6
105 15 135 20 30 5 91 14 135 20 44 6 108 15 143 21 34 5 90 13 125 18 34 6
98 15 142 21 44 6 105 15 135 20 30 5 91 14 135 20 44 6 105 15 135 20 30 5
91 14 135 20 44 6 105 15 135 20 30 5 91 14 135 20 168 24 222 32 275 40 30 5
91 14 135 20 44 6 105 15 135 20 30 5 91 14 135 20 44 6 105 15 135 20 30 5
91 14 135 20 44 6 105 15 135 20 30 5 91 14 135 20 168 24 222 32 275 40 30 5
91 14 135 20 44 6 105 15 135 20 30 5 91 14 135 20 44 6 105 15 135 20 30 5
91 14 135 20 44 6 105 15 135 20 30 5 91 14 135 20 168 24 222 32 275 40 30 5
91 14 135 20 44 6 105 15 135 20 30 5 91 14 135 20 44 6 105 15 135 20 30 5
91 14 135 20 44 6 108 15 143 21 34 5 90 13 125 18 34 6 98 15 142 21 44 6
105 15 135 20 30 5 91 14 135 20 44 6 105 15 135 20 30 5 91 14 135 20 44 6
108 15 143 21 34 5 90 13 125 18 34 6 98 15 142 21 44 6 105 15 135 20 30 5
91 14 135 20 44 6 105 15 135 20 30 5 91 14 135 20 44 6 105 15 135 20 30 5
91 14 135 20 44 6 107 15 140 20 33 5 94 14 135 20 41 6 100 15 130 20 83 13
189 28 248 36 28 3 52 9 52 14 0 4 -629 371 -1397 815 -769 444 -1406 816
-1416 827 -14 17 -17 35 -15 92 l3 71 522 300 c287 165 525 303 528 307 8 8
-270 74 -375 89 -128 17 -399 15 -493 -5 -105 -23 -292 -88 -402 -141 -114
-55 -310 -185 -396 -264 -122 -111 -165 -211 -135 -314 31 -106 93 -155 391
-305 566 -286 803 -470 831 -644 28 -167 -211 -328 -579 -392 -359 -63 -1045
-26 -1455 78 -223 57 -446 149 -602 251 -96 62 -247 213 -292 290 -87 150
-122 281 -121 455 1 105 5 139 28 215 40 137 107 254 197 350 l78 82 -125 72
c-68 40 -131 79 -140 87 -8 9 -15 30 -15 47 0 32 7 36 430 281 237 137 432
252 435 255 2 4 -52 41 -121 81 l-124 75 0 300 0 301 56 27 57 28 131 -73 c72
-41 251 -141 398 -223 l268 -150 0 -145 0 -145 183 -106 182 -106 3 -41 c3
-36 -1 -43 -30 -65 -18 -13 -299 -176 -625 -362 -578 -329 -593 -337 -625
-326 -18 6 -94 47 -170 91 -75 44 -143 80 -151 80 -17 0 -113 -101 -158 -166
-44 -64 -104 -197 -123 -274 -55 -215 -13 -462 111 -654 185 -286 612 -493
1188 -575 228 -33 414 -45 695 -45 268 0 374 9 546 49 172 40 360 140 418 222
64 92 43 183 -72 305 -118 125 -289 235 -680 436 -293 151 -339 180 -388 245
-47 62 -65 125 -53 196 11 74 45 126 142 217 152 144 369 273 593 353 184 66
271 82 464 82 187 1 321 -16 499 -63 64 -16 126 -32 138 -35 16 -4 125 54 392
208 l371 213 0 1218 c0 670 3 1217 8 1216 4 -1 20 4 35 10 22 9 35 9 61 -2 18
-7 304 -171 637 -363 1697 -983 1716 -993 1734 -986 14 5 17 3 13 -8 -4 -10
61 -53 231 -151 l236 -136 3 -1177 2 -1176 30 -17 c28 -16 30 -20 30 -84 0
-55 -4 -71 -22 -91 -13 -14 -426 -258 -918 -543 -492 -284 -904 -524 -915
-532 -18 -13 -15 -14 30 -8 28 3 79 10 115 16 36 5 99 14 140 20 41 6 103 16
138 21 162 24 192 28 267 39 44 6 107 15 140 20 33 5 94 14 135 20 41 6 102
15 135 20 33 5 94 14 135 20 41 6 102 15 135 20 33 5 94 14 135 20 41 6 104
16 140 21 36 5 94 14 130 19 68 10 174 25 275 40 33 5 94 14 135 20 41 6 102
15 135 20 33 5 94 14 135 20 41 6 102 15 135 20 33 5 94 14 135 20 41 6 104
16 140 21 36 5 94 14 130 19 68 10 174 25 275 40 33 5 94 14 135 20 41 6 102
15 135 20 33 5 94 14 135 20 41 6 102 15 135 20 33 5 94 14 135 20 41 6 104
16 140 21 36 5 94 14 130 19 68 10 174 25 275 40 33 5 94 14 135 20 41 6 102
15 135 20 33 5 94 14 135 20 41 6 103 16 138 21 162 24 192 28 267 39 44 6
107 15 140 20 33 5 94 14 135 20 41 6 102 15 135 20 33 5 94 14 135 20 41 6
102 15 135 20 33 5 94 14 135 20 41 6 104 16 140 21 36 5 85 12 110 15 25 3
55 7 68 10 l22 4 0 4725 0 4725 -12645 0 -12645 0 0 -6570z m1604 3419 c56
-15 121 -85 140 -150 34 -112 12 -231 -55 -304 -48 -53 -92 -69 -180 -68 -124
0 -207 73 -229 202 -41 224 115 378 324 320z m4390 0 c56 -15 121 -85 140
-150 34 -112 12 -231 -55 -304 -48 -53 -92 -69 -180 -68 -124 0 -207 73 -229
202 -41 224 115 378 324 320z m-3796 -46 l-3 -48 -50 0 c-49 0 -50 0 -53 33
-5 54 2 62 58 62 l51 0 -3 -47z m1262 -53 l0 -100 95 0 95 0 0 100 0 100 55 0
55 0 0 -255 0 -255 -55 0 -55 0 0 110 0 110 -95 0 -95 0 0 -110 0 -110 -55 0
-55 0 0 255 0 255 55 0 55 0 0 -100z m1268 -157 l2 -253 -55 0 -55 0 0 248 c0
137 3 252 7 256 4 4 28 6 53 4 l45 -3 3 -252z m432 165 l0 -79 26 20 c20 15
41 21 81 21 49 0 59 -4 89 -34 l34 -34 0 -156 0 -156 -50 0 -50 0 0 130 c0
117 -2 132 -20 150 -27 27 -56 25 -85 -5 -24 -23 -25 -30 -25 -150 l0 -125
-55 0 -55 0 0 248 c0 137 2 251 4 253 2 2 27 2 55 1 l51 -4 0 -80z m2835 -100
c37 -106 78 -221 91 -256 l23 -63 -61 3 -62 3 -15 48 -15 47 -91 0 -91 0 -15
-47 -15 -48 -57 -3 c-31 -2 -57 1 -57 5 0 8 153 442 170 481 8 19 17 22 68 22
l59 0 68 -192z m493 169 c49 -27 72 -71 72 -140 0 -123 -51 -166 -197 -167
l-83 0 0 -90 0 -90 -55 0 -55 0 0 248 c0 137 3 252 8 256 4 5 68 6 142 4 104
-3 143 -8 168 -21z m252 -232 l0 -255 -55 0 -55 0 0 248 c0 137 3 252 7 255 3
4 28 7 55 7 l48 0 0 -255z m-3812 168 c3 -51 4 -53 33 -53 27 0 29 -3 29 -35
0 -32 -2 -35 -30 -35 l-31 0 3 -112 3 -113 28 -3 c26 -3 28 -6 25 -40 l-3 -37
-57 0 c-92 1 -98 11 -98 172 l0 133 -30 0 c-28 0 -30 3 -30 35 0 32 2 35 30
35 30 0 30 0 30 56 l0 55 48 -3 47 -3 3 -52z m-2368 -58 c59 -30 93 -97 93
-181 0 -69 -28 -133 -73 -166 -54 -39 -176 -40 -228 -1 -132 98 -95 325 59
363 41 10 114 3 149 -15z m6498 3 c34 -10 72 -58 72 -90 0 -29 -86 -25 -110 4
-31 38 -119 23 -103 -18 2 -7 28 -18 56 -24 127 -30 167 -61 167 -130 0 -81
-55 -121 -166 -121 -78 0 -128 20 -154 63 -33 55 -28 68 29 68 41 0 51 -4 65
-25 14 -21 24 -25 67 -25 78 0 80 50 2 65 -20 3 -60 16 -90 27 -80 29 -104 89
-63 155 40 66 121 84 228 51z m-7140 -19 l3 -26 29 28 c19 19 39 29 59 29 30
0 31 -1 31 -50 0 -47 -2 -50 -26 -50 -28 0 -65 -16 -76 -34 -4 -6 -8 -64 -8
-128 l0 -118 -55 0 -55 0 0 183 c0 101 3 187 7 191 4 4 25 6 48 4 35 -3 40 -6
43 -29z m280 -161 l2 -188 -55 0 -55 0 0 183 c0 101 3 187 7 191 4 4 28 6 53
4 l45 -3 3 -187z m802 175 c45 -26 53 -56 58 -215 l4 -148 -56 0 -56 0 0 128
c0 138 -6 156 -50 167 -18 4 -34 0 -53 -15 -27 -21 -27 -22 -27 -151 l0 -129
-55 0 -55 0 0 185 0 185 50 0 c44 0 50 -2 50 -21 0 -20 1 -20 31 5 37 31 114
36 159 9z m1097 -9 c39 -28 73 -99 73 -151 l0 -43 -125 0 c-119 0 -125 -1
-125 -20 0 -31 44 -70 78 -70 16 0 37 9 47 20 14 15 31 20 71 20 58 0 60 -6
24 -56 -47 -65 -173 -87 -241 -41 -70 47 -99 130 -78 227 12 55 38 93 83 122
42 26 152 22 193 -8z m377 12 c59 -25 66 -44 66 -198 0 -80 4 -139 10 -143 24
-15 6 -25 -41 -25 -37 0 -55 5 -64 17 -11 15 -14 15 -40 -5 -33 -26 -101 -30
-144 -8 -73 38 -65 169 13 201 18 8 56 17 84 21 66 8 91 26 76 51 -21 34 -98
29 -109 -7 -5 -16 -15 -20 -56 -20 -27 0 -49 5 -49 10 0 29 33 82 62 100 40
24 141 27 192 6z m1837 -16 c4 -14 7 -20 8 -15 2 20 59 45 103 45 93 0 150
-72 150 -191 0 -114 -48 -185 -132 -196 -49 -7 -85 2 -110 27 -20 20 -20 20
-20 -75 l0 -95 -50 0 -50 0 0 258 c0 142 3 262 7 266 4 4 25 6 47 4 33 -2 41
-7 47 -28z m586 4 c39 -28 73 -99 73 -151 l0 -43 -125 0 c-119 0 -125 -1 -125
-20 0 -31 44 -70 78 -70 16 0 37 9 47 20 14 15 31 20 71 20 58 0 60 -6 24 -56
-47 -65 -173 -87 -241 -41 -69 46 -98 130 -80 226 10 51 35 87 82 119 29 20
44 23 101 20 47 -3 76 -10 95 -24z m423 9 c45 -26 53 -56 58 -215 l4 -148 -56
0 -56 0 0 128 c0 138 -6 156 -50 167 -18 4 -34 0 -53 -15 -27 -21 -27 -22 -27
-151 l0 -129 -55 0 -55 0 0 185 0 185 50 0 c44 0 50 -2 50 -21 0 -20 1 -20 31
5 37 31 114 36 159 9z m13514 -252 c175 -46 325 -151 383 -269 l28 -57 -1
-605 c0 -594 -1 -606 -22 -652 -60 -136 -200 -231 -404 -273 -134 -29 -340
-16 -464 29 -38 13 -43 13 -59 -2 -16 -16 -17 -16 -11 3 5 17 -3 25 -48 47
-81 40 -178 135 -210 207 l-27 60 1 333 c0 183 1 459 3 613 l2 280 30 53 c31
58 103 129 169 167 52 30 181 73 254 85 89 14 285 4 376 -19z m-19425 -960
c13 -3 34 -19 45 -34 20 -27 20 -29 4 -58 -17 -28 -17 -30 2 -49 29 -29 26
-76 -6 -105 -24 -22 -36 -25 -105 -25 l-79 0 0 140 0 140 58 -1 c31 -1 68 -4
81 -8z m349 -19 c3 -17 -2 -22 -17 -22 -14 0 -21 6 -21 18 0 38 33 41 38 4z
m80 -115 c2 -132 2 -137 -18 -137 -19 0 -20 6 -20 133 0 74 3 137 7 141 21 21
28 -10 31 -137z m220 -1 l3 -136 -28 0 c-15 0 -42 -2 -60 -6 -27 -5 -37 -1
-63 24 -23 24 -30 39 -30 71 0 79 39 119 104 108 36 -6 36 -6 36 32 0 40 7 54
24 48 7 -2 12 -55 14 -141z m190 116 c3 -17 -2 -22 -17 -22 -14 0 -21 6 -21
18 0 38 33 41 38 4z m1220 0 c3 -17 -2 -22 -17 -22 -14 0 -21 6 -21 18 0 38
33 41 38 4z m1230 -115 c2 -132 2 -137 -18 -137 -19 0 -20 6 -20 133 0 74 3
137 7 141 21 21 28 -10 31 -137z m80 115 c3 -17 -2 -22 -17 -22 -14 0 -21 6
-21 18 0 38 33 41 38 4z m590 0 c3 -17 -2 -22 -17 -22 -14 0 -21 6 -21 18 0
38 33 41 38 4z m842 8 c0 -11 -7 -20 -15 -20 -8 0 -15 -9 -15 -20 0 -11 7 -20
15 -20 8 0 15 -7 15 -15 0 -8 -7 -15 -15 -15 -12 0 -15 -16 -15 -85 0 -78 -2
-85 -20 -85 -18 0 -20 7 -20 85 0 69 -3 85 -15 85 -8 0 -15 7 -15 15 0 8 7 15
15 15 9 0 15 9 15 24 0 29 24 56 51 56 12 0 19 -7 19 -20z m638 -124 l3 -136
-28 0 c-15 0 -42 -2 -60 -6 -27 -5 -37 -1 -63 24 -23 24 -30 39 -30 71 0 79
39 119 104 108 36 -6 36 -6 36 32 0 40 7 54 24 48 7 -2 12 -55 14 -141z m90
116 c3 -17 -2 -22 -17 -22 -14 0 -21 6 -21 18 0 38 33 41 38 4z m122 8 c0 -11
-7 -20 -15 -20 -8 0 -15 -9 -15 -20 0 -16 7 -20 30 -20 25 0 30 4 30 24 0 29
24 56 51 56 12 0 19 -7 19 -20 0 -11 -7 -20 -15 -20 -8 0 -15 -9 -15 -20 0
-11 7 -20 15 -20 8 0 15 -7 15 -15 0 -8 -7 -15 -15 -15 -12 0 -15 -16 -15 -85
0 -78 -2 -85 -20 -85 -18 0 -20 7 -20 85 l0 85 -30 0 -30 0 0 -85 c0 -78 -2
-85 -20 -85 -18 0 -20 7 -20 85 0 69 -3 85 -15 85 -8 0 -15 7 -15 15 0 8 7 15
15 15 9 0 15 9 15 24 0 29 24 56 51 56 12 0 19 -7 19 -20z m1140 -29 l0 -49
29 14 c34 17 74 6 90 -25 6 -11 11 -54 11 -95 0 -69 -2 -76 -20 -76 -18 0 -20
7 -20 69 0 85 -6 101 -35 101 -42 0 -55 -25 -55 -101 0 -62 -2 -69 -20 -69
-19 0 -20 7 -20 133 0 74 3 137 7 140 20 21 33 4 33 -42z m628 -94 c2 -132 2
-137 -18 -137 -19 0 -20 6 -20 133 0 74 3 137 7 141 21 21 28 -10 31 -137z
m192 94 l0 -49 29 14 c34 17 74 6 90 -25 6 -11 11 -54 11 -95 0 -69 -2 -76
-20 -76 -18 0 -20 7 -20 69 0 85 -6 101 -35 101 -42 0 -55 -25 -55 -101 0 -62
-2 -69 -20 -69 -19 0 -20 7 -20 133 0 74 3 137 7 140 20 21 33 4 33 -42z
m2198 21 c3 -17 -2 -22 -17 -22 -14 0 -21 6 -21 18 0 38 33 41 38 4z m-7840
-25 c2 -15 9 -27 18 -27 8 0 14 -7 14 -15 0 -8 -7 -15 -15 -15 -12 0 -15 -14
-15 -70 0 -56 3 -70 15 -70 18 0 20 -26 3 -33 -7 -2 -23 -1 -35 4 -21 8 -23
15 -23 89 0 64 -3 80 -15 80 -8 0 -15 7 -15 15 0 8 7 15 15 15 10 0 15 10 15
31 0 24 4 30 18 27 10 -2 18 -14 20 -31z m1900 0 c2 -15 9 -27 18 -27 8 0 14
-7 14 -15 0 -8 -7 -15 -15 -15 -12 0 -15 -14 -15 -70 0 -56 3 -70 15 -70 18 0
20 -26 3 -33 -7 -2 -23 -1 -35 4 -21 8 -23 15 -23 89 0 64 -3 80 -15 80 -8 0
-15 7 -15 15 0 8 7 15 15 15 10 0 15 10 15 31 0 24 4 30 18 27 10 -2 18 -14
20 -31z m2710 0 c2 -15 9 -27 18 -27 8 0 14 -7 14 -15 0 -8 -7 -15 -15 -15
-12 0 -15 -14 -15 -70 0 -56 3 -70 15 -70 18 0 20 -26 3 -33 -7 -2 -23 -1 -35
4 -21 8 -23 15 -23 89 0 64 -3 80 -15 80 -8 0 -15 7 -15 15 0 8 7 15 15 15 10
0 15 10 15 31 0 24 4 30 18 27 10 -2 18 -14 20 -31z m930 0 c2 -15 9 -27 18
-27 8 0 14 -7 14 -15 0 -8 -7 -15 -15 -15 -12 0 -15 -14 -15 -70 0 -56 3 -70
15 -70 18 0 20 -26 3 -33 -7 -2 -23 -1 -35 4 -21 8 -23 15 -23 89 0 64 -3 80
-15 80 -8 0 -15 7 -15 15 0 8 7 15 15 15 10 0 15 10 15 31 0 24 4 30 18 27 10
-2 18 -14 20 -31z m-6473 -50 c10 -15 15 -47 15 -99 0 -71 -2 -78 -20 -78 -18
0 -20 7 -20 73 0 73 -9 97 -39 97 -35 0 -51 -31 -51 -102 0 -61 -2 -68 -20
-68 -19 0 -20 7 -20 100 0 93 1 100 20 100 11 0 20 -5 20 -11 0 -8 4 -8 13 -1
31 25 80 20 102 -11z m210 0 c10 -15 15 -47 15 -99 0 -71 -2 -78 -20 -78 -18
0 -20 7 -20 73 0 73 -9 97 -39 97 -35 0 -51 -31 -51 -102 0 -61 -2 -68 -20
-68 -19 0 -20 7 -20 100 0 93 1 100 20 100 11 0 20 -5 20 -11 0 -8 4 -8 13 -1
31 25 80 20 102 -11z m202 1 c46 -43 37 -139 -16 -171 -43 -25 -78 -21 -112
12 -50 50 -37 145 25 175 36 19 72 13 103 -16z m396 10 c14 -7 17 -22 17 -82
0 -56 4 -75 15 -80 8 -3 15 -10 15 -16 0 -19 -30 -23 -48 -7 -15 13 -20 14
-36 1 -31 -23 -72 -17 -95 12 -12 15 -21 32 -21 39 0 26 36 56 75 62 47 7 66
19 58 39 -7 19 -69 19 -77 -1 -3 -8 -14 -15 -25 -15 -30 0 -14 40 23 55 30 13
64 11 99 -7z m606 -12 c11 -12 24 -36 27 -54 l7 -32 -77 0 c-42 0 -76 -2 -76
-4 0 -3 4 -16 10 -30 8 -21 16 -26 44 -26 25 0 38 6 46 20 12 22 40 27 40 7 0
-49 -75 -80 -128 -53 -75 39 -58 182 23 198 33 6 62 -3 84 -26z m304 12 c14
-7 17 -22 17 -82 0 -56 4 -75 15 -80 8 -3 15 -10 15 -16 0 -19 -30 -23 -48 -7
-15 13 -20 14 -36 1 -31 -23 -72 -17 -95 12 -12 15 -21 32 -21 39 0 26 36 56
75 62 47 7 66 19 58 39 -7 19 -69 19 -77 -1 -3 -8 -14 -15 -25 -15 -30 0 -14
40 23 55 30 13 64 11 99 -7z m232 -29 c45 -86 -24 -196 -101 -160 -23 10 -24
10 -24 -34 0 -38 -3 -45 -20 -45 -19 0 -20 7 -20 140 0 133 1 140 20 140 11 0
20 -4 20 -9 0 -6 12 -4 26 4 35 18 80 2 99 -36z m210 0 c45 -86 -24 -196 -101
-160 -23 10 -24 10 -24 -34 0 -38 -3 -45 -20 -45 -19 0 -20 7 -20 140 0 133 1
140 20 140 11 0 20 -4 20 -9 0 -6 12 -4 26 4 35 18 80 2 99 -36z m368 24 c9
-9 17 -24 17 -35 0 -25 -36 -24 -43 2 -7 28 -51 26 -71 -2 -18 -26 -21 -71 -6
-99 15 -27 70 -26 77 1 5 20 43 29 43 11 0 -41 -54 -76 -101 -66 -58 13 -88
93 -58 159 24 51 99 67 142 29z m190 5 c14 -7 17 -22 17 -82 0 -56 4 -75 15
-80 8 -3 15 -10 15 -16 0 -19 -30 -23 -48 -7 -15 13 -20 14 -36 1 -31 -23 -72
-17 -95 12 -12 15 -21 32 -21 39 0 26 36 56 75 62 47 7 66 19 58 39 -7 19 -69
19 -77 -1 -3 -8 -14 -15 -25 -15 -30 0 -14 40 23 55 30 13 64 11 99 -7z m404
-10 c46 -43 37 -139 -16 -171 -43 -25 -78 -21 -112 12 -50 50 -37 145 25 175
36 19 72 13 103 -16z m218 -1 c10 -15 15 -47 15 -99 0 -71 -2 -78 -20 -78 -18
0 -20 7 -20 73 0 73 -9 97 -39 97 -35 0 -51 -31 -51 -102 0 -61 -2 -68 -20
-68 -19 0 -20 7 -20 100 0 93 1 100 20 100 11 0 20 -5 20 -11 0 -8 4 -8 13 -1
31 25 80 20 102 -11z m188 5 c9 -8 17 -21 17 -29 0 -18 -36 -17 -44 2 -3 9
-18 15 -36 15 -23 0 -30 -4 -30 -20 0 -14 11 -22 43 -31 78 -20 98 -59 52
-104 -16 -17 -35 -25 -60 -25 -35 0 -85 35 -85 59 0 21 23 23 39 4 21 -27 48
-35 72 -23 34 19 21 37 -38 56 -60 20 -70 33 -59 79 11 42 88 53 129 17z m414
-4 c46 -43 37 -139 -16 -171 -43 -25 -78 -21 -112 12 -50 50 -37 145 25 175
36 19 72 13 103 -16z m163 12 c0 -12 -10 -24 -24 -29 -30 -12 -36 -29 -36
-102 0 -52 -2 -59 -20 -59 -19 0 -20 7 -20 100 0 93 1 100 20 100 11 0 20 -4
20 -9 0 -6 12 -3 28 5 34 17 32 18 32 -6z m779 -14 c11 -12 24 -36 27 -54 l7
-32 -77 0 c-42 0 -76 -2 -76 -4 0 -3 4 -16 10 -30 8 -21 16 -26 44 -26 25 0
38 6 46 20 12 22 40 27 40 7 0 -49 -75 -80 -128 -53 -75 39 -58 182 23 198 33
6 62 -3 84 -26z m171 14 c0 -12 -10 -24 -24 -29 -30 -12 -36 -29 -36 -102 0
-52 -2 -59 -20 -59 -19 0 -20 7 -20 100 0 93 1 100 20 100 11 0 20 -4 20 -9 0
-6 12 -3 28 5 34 17 32 18 32 -6z m169 -14 c11 -12 24 -36 27 -54 l7 -32 -77
0 c-42 0 -76 -2 -76 -4 0 -3 4 -16 10 -30 8 -21 16 -26 44 -26 25 0 38 6 46
20 12 22 40 27 40 7 0 -49 -75 -80 -128 -53 -75 39 -58 182 23 198 33 6 62 -3
84 -26z m216 1 c10 -15 15 -47 15 -99 0 -71 -2 -78 -20 -78 -18 0 -20 7 -20
73 0 73 -9 97 -39 97 -35 0 -51 -31 -51 -102 0 -61 -2 -68 -20 -68 -19 0 -20
7 -20 100 0 93 1 100 20 100 11 0 20 -5 20 -11 0 -8 4 -8 13 -1 31 25 80 20
102 -11z m634 -1 c11 -12 24 -36 27 -54 l7 -32 -77 0 c-42 0 -76 -2 -76 -4 0
-3 4 -16 10 -30 8 -21 16 -26 44 -26 25 0 38 6 46 20 12 22 40 27 40 7 0 -49
-75 -80 -128 -53 -75 39 -58 182 23 198 33 6 62 -3 84 -26z m204 12 c14 -7 17
-22 17 -82 0 -56 4 -75 15 -80 8 -3 15 -10 15 -16 0 -19 -30 -23 -48 -7 -15
13 -20 14 -36 1 -31 -23 -72 -17 -95 12 -12 15 -21 32 -21 39 0 26 36 56 75
62 47 7 66 19 58 39 -7 19 -69 19 -77 -1 -3 -8 -14 -15 -25 -15 -30 0 -14 40
23 55 30 13 64 11 99 -7z m610 -5 c9 -9 17 -24 17 -35 0 -25 -36 -24 -43 2 -7
28 -51 26 -71 -2 -18 -26 -21 -71 -6 -99 15 -27 70 -26 77 1 5 20 43 29 43 11
0 -41 -54 -76 -101 -66 -58 13 -88 93 -58 159 24 51 99 67 142 29z m190 5 c14
-7 17 -22 17 -82 0 -56 4 -75 15 -80 8 -3 15 -10 15 -16 0 -19 -30 -23 -48 -7
-15 13 -20 14 -36 1 -31 -23 -72 -17 -95 12 -12 15 -21 32 -21 39 0 26 36 56
75 62 47 7 66 19 58 39 -7 19 -69 19 -77 -1 -3 -8 -14 -15 -25 -15 -30 0 -14
40 23 55 30 13 64 11 99 -7z m167 2 c0 -12 -10 -24 -24 -29 -30 -12 -36 -29
-36 -102 0 -52 -2 -59 -20 -59 -19 0 -20 7 -20 100 0 93 1 100 20 100 11 0 20
-4 20 -9 0 -6 12 -3 28 5 34 17 32 18 32 -6z m179 -14 c11 -12 24 -36 27 -54
l7 -32 -77 0 c-42 0 -76 -2 -76 -4 0 -3 4 -16 10 -30 8 -21 16 -26 44 -26 25
0 38 6 46 20 12 22 40 27 40 7 0 -49 -75 -80 -128 -53 -75 39 -58 182 23 198
33 6 62 -3 84 -26z m304 6 c9 -8 17 -21 17 -29 0 -18 -36 -17 -44 2 -3 9 -18
15 -36 15 -23 0 -30 -4 -30 -20 0 -14 11 -22 43 -31 78 -20 98 -59 52 -104
-16 -17 -35 -25 -60 -25 -35 0 -85 35 -85 59 0 21 23 23 39 4 21 -27 48 -35
72 -23 34 19 21 37 -38 56 -60 20 -70 33 -59 79 11 42 88 53 129 17z m200 1
c9 -9 17 -24 17 -35 0 -25 -36 -24 -43 2 -7 28 -51 26 -71 -2 -18 -26 -21 -71
-6 -99 15 -27 70 -26 77 1 5 20 43 29 43 11 0 -41 -54 -76 -101 -66 -58 13
-88 93 -58 159 24 51 99 67 142 29z m196 -7 c11 -12 24 -36 27 -54 l7 -32 -77
0 c-42 0 -76 -2 -76 -4 0 -3 4 -16 10 -30 8 -21 16 -26 44 -26 25 0 38 6 46
20 12 22 40 27 40 7 0 -49 -75 -80 -128 -53 -75 39 -58 182 23 198 33 6 62 -3
84 -26z m216 1 c10 -15 15 -47 15 -99 0 -71 -2 -78 -20 -78 -18 0 -20 7 -20
73 0 73 -9 97 -39 97 -35 0 -51 -31 -51 -102 0 -61 -2 -68 -20 -68 -19 0 -20
7 -20 100 0 93 1 100 20 100 11 0 20 -5 20 -11 0 -8 4 -8 13 -1 31 25 80 20
102 -11z m198 11 c14 -7 17 -22 17 -82 0 -56 4 -75 15 -80 8 -3 15 -10 15 -16
0 -19 -30 -23 -48 -7 -15 13 -20 14 -36 1 -31 -23 -72 -17 -95 12 -12 15 -21
32 -21 39 0 26 36 56 75 62 47 7 66 19 58 39 -7 19 -69 19 -77 -1 -3 -8 -14
-15 -25 -15 -30 0 -14 40 23 55 30 13 64 11 99 -7z m167 2 c0 -12 -10 -24 -24
-29 -30 -12 -36 -29 -36 -102 0 -52 -2 -59 -20 -59 -19 0 -20 7 -20 100 0 93
1 100 20 100 11 0 20 -4 20 -9 0 -6 12 -3 28 5 34 17 32 18 32 -6z m257 -12
c46 -43 37 -139 -16 -171 -43 -25 -78 -21 -112 12 -50 50 -37 145 25 175 36
19 72 13 103 -16z m196 4 c9 -8 17 -21 17 -29 0 -18 -36 -17 -44 2 -3 9 -18
15 -36 15 -23 0 -30 -4 -30 -20 0 -14 11 -22 43 -31 78 -20 98 -59 52 -104
-16 -17 -35 -25 -60 -25 -35 0 -85 35 -85 59 0 21 23 23 39 4 21 -27 48 -35
72 -23 34 19 21 37 -38 56 -60 20 -70 33 -59 79 11 42 88 53 129 17z m-10051
-64 c3 -81 3 -83 30 -86 39 -5 58 29 58 105 0 56 2 63 20 63 19 0 20 -7 20
-100 0 -93 -1 -100 -20 -100 -11 0 -20 5 -20 11 0 5 -10 3 -22 -5 -32 -22 -55
-20 -83 9 -22 22 -25 32 -25 105 0 73 2 80 20 80 17 0 19 -8 22 -82z m208 -18
c0 -93 -1 -100 -20 -100 -19 0 -20 7 -20 100 0 93 1 100 20 100 19 0 20 -7 20
-100z m490 0 c0 -93 -1 -100 -20 -100 -19 0 -20 7 -20 100 0 93 1 100 20 100
19 0 20 -7 20 -100z m718 21 l25 -74 27 74 c21 58 31 75 48 77 l22 3 -26 -68
c-15 -37 -31 -83 -37 -100 -8 -24 -16 -33 -32 -33 -19 0 -27 13 -53 83 -16 45
-33 90 -37 100 -6 15 -4 18 15 15 19 -2 28 -16 48 -77z m502 -21 c0 -93 -1
-100 -20 -100 -19 0 -20 7 -20 100 0 93 1 100 20 100 19 0 20 -7 20 -100z m98
21 l25 -74 27 74 c21 58 31 75 48 77 l22 3 -26 -68 c-15 -37 -31 -83 -37 -100
-8 -24 -16 -33 -32 -33 -19 0 -27 13 -53 83 -16 45 -33 90 -37 100 -6 15 -4
18 15 15 19 -2 28 -16 48 -77z m1212 -21 c0 -93 -1 -100 -20 -100 -19 0 -20 7
-20 100 0 93 1 100 20 100 19 0 20 -7 20 -100z m590 0 c0 -93 -1 -100 -20
-100 -19 0 -20 7 -20 100 0 93 1 100 20 100 19 0 20 -7 20 -100z m1570 0 c0
-93 -1 -100 -20 -100 -19 0 -20 7 -20 100 0 93 1 100 20 100 19 0 20 -7 20
-100z m4280 0 c0 -93 -1 -100 -20 -100 -19 0 -20 7 -20 100 0 93 1 100 20 100
19 0 20 -7 20 -100z m490 -80 c0 -13 -7 -20 -20 -20 -13 0 -20 7 -20 20 0 13
7 20 20 20 13 0 20 -7 20 -20z m-10269 -249 c16 -16 29 -37 29 -45 0 -23 -37
-20 -45 4 -7 22 -38 33 -81 28 -25 -3 -29 -7 -29 -33 0 -28 4 -31 63 -47 35
-9 70 -22 77 -28 20 -16 28 -65 15 -89 -29 -55 -137 -66 -186 -20 -30 28 -33
69 -4 69 13 0 20 -7 20 -20 0 -24 28 -40 74 -40 28 0 66 20 66 35 0 22 -22 38
-69 51 -83 24 -101 38 -101 80 0 52 36 84 95 84 38 0 52 -5 76 -29z m359 9 c0
-11 -7 -20 -15 -20 -8 0 -15 -9 -15 -20 0 -11 7 -20 15 -20 8 0 15 -7 15 -15
0 -8 -7 -15 -15 -15 -12 0 -15 -16 -15 -85 0 -78 -2 -85 -20 -85 -18 0 -20 7
-20 85 0 69 -3 85 -15 85 -8 0 -15 7 -15 15 0 8 7 15 15 15 9 0 15 9 15 24 0
29 24 56 51 56 12 0 19 -7 19 -20z m278 -123 c2 -132 2 -137 -18 -137 -19 0
-20 6 -20 133 0 74 3 137 7 141 21 21 28 -10 31 -137z m930 -1 l3 -136 -28 0
c-15 0 -42 -2 -60 -6 -27 -5 -37 -1 -63 24 -23 24 -30 39 -30 71 0 79 39 119
104 108 36 -6 36 -6 36 32 0 40 7 54 24 48 7 -2 12 -55 14 -141z m800 116 c3
-17 -2 -22 -17 -22 -14 0 -21 6 -21 18 0 38 33 41 38 4z m80 -115 c2 -132 2
-137 -18 -137 -19 0 -20 6 -20 133 0 74 3 137 7 141 21 21 28 -10 31 -137z
m1800 -1 l3 -136 -28 0 c-15 0 -42 -2 -60 -6 -27 -5 -37 -1 -63 24 -23 24 -30
39 -30 71 0 79 39 119 104 108 36 -6 36 -6 36 32 0 40 7 54 24 48 7 -2 12 -55
14 -141z m1270 0 l3 -136 -28 0 c-15 0 -42 -2 -60 -6 -27 -5 -37 -1 -63 24
-23 24 -30 39 -30 71 0 79 39 119 104 108 36 -6 36 -6 36 32 0 40 7 54 24 48
7 -2 12 -55 14 -141z m1010 96 c3 -44 5 -45 37 -33 47 19 105 -32 105 -92 0
-72 -53 -127 -109 -111 -14 4 -36 6 -48 5 -23 -2 -23 -2 -23 139 0 129 2 141
18 138 12 -2 18 -15 20 -46z m210 20 c3 -17 -2 -22 -17 -22 -14 0 -21 6 -21
18 0 38 33 41 38 4z m90 -115 c2 -132 2 -137 -18 -137 -19 0 -20 6 -20 133 0
74 3 137 7 141 21 21 28 -10 31 -137z m80 115 c3 -17 -2 -22 -17 -22 -14 0
-21 6 -21 18 0 38 33 41 38 4z m190 0 c3 -17 -2 -22 -17 -22 -14 0 -21 6 -21
18 0 38 33 41 38 4z m632 8 c0 -11 -7 -20 -15 -20 -8 0 -15 -9 -15 -20 0 -11
7 -20 15 -20 8 0 15 -7 15 -15 0 -8 -7 -15 -15 -15 -12 0 -15 -16 -15 -85 0
-78 -2 -85 -20 -85 -18 0 -20 7 -20 85 0 69 -3 85 -15 85 -8 0 -15 7 -15 15 0
8 7 15 15 15 9 0 15 9 15 24 0 29 24 56 51 56 12 0 19 -7 19 -20z m1098 -8 c3
-17 -2 -22 -17 -22 -14 0 -21 6 -21 18 0 38 33 41 38 4z m192 -21 l0 -49 29
14 c34 17 74 6 90 -25 6 -11 11 -54 11 -95 0 -69 -2 -76 -20 -76 -18 0 -20 7
-20 69 0 85 -6 101 -35 101 -42 0 -55 -25 -55 -101 0 -62 -2 -69 -20 -69 -19
0 -20 7 -20 133 0 74 3 137 7 140 20 21 33 4 33 -42z m208 21 c3 -17 -2 -22
-17 -22 -14 0 -21 6 -21 18 0 38 33 41 38 4z m512 -21 l0 -49 29 14 c34 17 74
6 90 -25 6 -11 11 -54 11 -95 0 -69 -2 -76 -20 -76 -18 0 -20 7 -20 69 0 85
-6 101 -35 101 -42 0 -55 -25 -55 -101 0 -62 -2 -69 -20 -69 -19 0 -20 7 -20
133 0 74 3 137 7 140 20 21 33 4 33 -42z m688 35 c40 -22 62 -66 62 -126 0
-92 -52 -150 -135 -150 -56 0 -94 25 -117 77 -32 72 -8 166 50 197 33 19 109
20 140 2z m260 -14 c3 -17 -2 -22 -17 -22 -14 0 -21 6 -21 18 0 38 33 41 38 4z
m620 -35 l3 -57 69 0 70 0 0 61 c0 52 2 60 18 57 15 -3 17 -19 20 -141 2 -132
2 -137 -18 -137 -18 0 -20 6 -20 60 l0 60 -70 0 -70 0 0 -60 c0 -53 -2 -60
-20 -60 -19 0 -20 7 -20 141 0 128 2 140 18 137 13 -2 18 -15 20 -61z m692
-77 c0 -133 -1 -140 -20 -140 -19 0 -20 7 -20 133 0 74 3 137 7 140 3 4 12 7
20 7 10 0 13 -30 13 -140z m190 91 l0 -49 29 14 c34 17 74 6 90 -25 6 -11 11
-54 11 -95 0 -69 -2 -76 -20 -76 -18 0 -20 7 -20 73 0 73 -9 97 -39 97 -35 0
-51 -31 -51 -102 0 -61 -2 -68 -20 -68 -19 0 -20 7 -20 140 0 133 1 140 20
140 17 0 20 -7 20 -49z m-7642 -4 c2 -15 9 -27 18 -27 8 0 14 -7 14 -15 0 -8
-7 -15 -15 -15 -12 0 -15 -14 -15 -70 0 -56 3 -70 15 -70 18 0 20 -26 3 -33
-7 -2 -23 -1 -35 4 -21 8 -23 15 -23 89 0 64 -3 80 -15 80 -8 0 -15 7 -15 15
0 8 7 15 15 15 10 0 15 10 15 31 0 24 4 30 18 27 10 -2 18 -14 20 -31z m2460
0 c2 -15 9 -27 18 -27 8 0 14 -7 14 -15 0 -8 -7 -15 -15 -15 -12 0 -15 -14
-15 -70 0 -56 3 -70 15 -70 18 0 20 -26 3 -33 -7 -2 -23 -1 -35 4 -21 8 -23
15 -23 89 0 64 -3 80 -15 80 -8 0 -15 7 -15 15 0 8 7 15 15 15 10 0 15 10 15
31 0 24 4 30 18 27 10 -2 18 -14 20 -31z m1920 0 c2 -15 9 -27 18 -27 8 0 14
-7 14 -15 0 -8 -7 -15 -15 -15 -12 0 -15 -14 -15 -70 0 -56 3 -70 15 -70 18 0
20 -26 3 -33 -7 -2 -23 -1 -35 4 -21 8 -23 15 -23 89 0 64 -3 80 -15 80 -8 0
-15 7 -15 15 0 8 7 15 15 15 10 0 15 10 15 31 0 24 4 30 18 27 10 -2 18 -14
20 -31z m710 0 c2 -15 9 -27 18 -27 8 0 14 -7 14 -15 0 -8 -7 -15 -15 -15 -12
0 -15 -14 -15 -70 0 -56 3 -70 15 -70 18 0 20 -26 3 -33 -7 -2 -23 -1 -35 4
-21 8 -23 15 -23 89 0 64 -3 80 -15 80 -8 0 -15 7 -15 15 0 8 7 15 15 15 10 0
15 10 15 31 0 24 4 30 18 27 10 -2 18 -14 20 -31z m2452 3 c0 -20 5 -30 15
-30 8 0 15 -7 15 -15 0 -8 -7 -15 -15 -15 -12 0 -15 -14 -15 -70 0 -56 3 -70
15 -70 19 0 20 -29 1 -36 -8 -3 -24 -1 -35 6 -19 9 -21 20 -21 90 0 64 -3 80
-15 80 -8 0 -15 7 -15 15 0 8 7 15 15 15 10 0 15 10 15 30 0 23 4 30 20 30 16
0 20 -7 20 -30z m-11877 -42 c14 -7 17 -22 17 -82 0 -56 4 -75 15 -80 8 -3 15
-10 15 -16 0 -19 -30 -23 -48 -7 -15 13 -20 14 -36 1 -31 -23 -72 -17 -95 12
-12 15 -21 32 -21 39 0 26 36 56 75 62 47 7 66 19 58 39 -7 19 -69 19 -77 -1
-3 -8 -14 -15 -25 -15 -30 0 -14 40 23 55 30 13 64 11 99 -7z m326 -12 c11
-12 24 -36 27 -54 l7 -32 -77 0 c-42 0 -76 -2 -76 -4 0 -3 4 -16 10 -30 8 -21
16 -26 44 -26 25 0 38 6 46 20 12 22 40 27 40 7 0 -49 -75 -80 -128 -53 -75
39 -58 182 23 198 33 6 62 -3 84 -26z m584 12 c14 -7 17 -22 17 -82 0 -56 4
-75 15 -80 8 -3 15 -10 15 -16 0 -19 -30 -23 -48 -7 -15 13 -20 14 -36 1 -31
-23 -72 -17 -95 12 -12 15 -21 32 -21 39 0 26 36 56 75 62 47 7 66 19 58 39
-7 19 -69 19 -77 -1 -3 -8 -14 -15 -25 -15 -30 0 -14 40 23 55 30 13 64 11 99
-7z m222 -11 c10 -15 15 -47 15 -99 0 -71 -2 -78 -20 -78 -18 0 -20 7 -20 73
0 73 -9 97 -39 97 -35 0 -51 -31 -51 -102 0 -61 -2 -68 -20 -68 -19 0 -20 7
-20 100 0 93 1 100 20 100 11 0 20 -5 20 -11 0 -8 4 -8 13 -1 31 25 80 20 102
-11z m524 -1 c11 -12 24 -36 27 -54 l7 -32 -77 0 c-42 0 -76 -2 -76 -4 0 -3 4
-16 10 -30 8 -21 16 -26 44 -26 25 0 38 6 46 20 12 22 40 27 40 7 0 -49 -75
-80 -128 -53 -75 39 -58 182 23 198 33 6 62 -3 84 -26z m204 12 c14 -7 17 -22
17 -82 0 -56 4 -75 15 -80 8 -3 15 -10 15 -16 0 -19 -30 -23 -48 -7 -15 13
-20 14 -36 1 -31 -23 -72 -17 -95 12 -12 15 -21 32 -21 39 0 26 36 56 75 62
47 7 66 19 58 39 -7 19 -69 19 -77 -1 -3 -8 -14 -15 -25 -15 -30 0 -14 40 23
55 30 13 64 11 99 -7z m200 -6 c9 -8 17 -21 17 -29 0 -18 -36 -17 -44 2 -3 9
-18 15 -36 15 -23 0 -30 -4 -30 -20 0 -14 11 -22 43 -31 78 -20 98 -59 52
-104 -16 -17 -35 -25 -60 -25 -35 0 -85 35 -85 59 0 21 23 23 39 4 21 -27 48
-35 72 -23 34 19 21 37 -38 56 -60 20 -70 33 -59 79 11 42 88 53 129 17z m660
6 c14 -7 17 -22 17 -82 0 -56 4 -75 15 -80 8 -3 15 -10 15 -16 0 -19 -30 -23
-48 -7 -15 13 -20 14 -36 1 -31 -23 -72 -17 -95 12 -12 15 -21 32 -21 39 0 26
36 56 75 62 47 7 66 19 58 39 -7 19 -69 19 -77 -1 -3 -8 -14 -15 -25 -15 -30
0 -14 40 23 55 30 13 64 11 99 -7z m210 -5 c9 -9 17 -24 17 -35 0 -25 -36 -24
-43 2 -7 28 -51 26 -71 -2 -18 -26 -21 -71 -6 -99 15 -27 70 -26 77 1 5 20 43
29 43 11 0 -41 -54 -76 -101 -66 -58 13 -88 93 -58 159 24 51 99 67 142 29z
m190 0 c9 -9 17 -24 17 -35 0 -25 -36 -24 -43 2 -7 28 -51 26 -71 -2 -18 -26
-21 -71 -6 -99 15 -27 70 -26 77 1 5 20 43 29 43 11 0 -41 -54 -76 -101 -66
-58 13 -88 93 -58 159 24 51 99 67 142 29z m196 -7 c11 -12 24 -36 27 -54 l7
-32 -77 0 c-42 0 -76 -2 -76 -4 0 -3 4 -16 10 -30 8 -21 16 -26 44 -26 25 0
38 6 46 20 12 22 40 27 40 7 0 -49 -75 -80 -128 -53 -75 39 -58 182 23 198 33
6 62 -3 84 -26z m204 6 c9 -8 17 -21 17 -29 0 -18 -36 -17 -44 2 -3 9 -18 15
-36 15 -23 0 -30 -4 -30 -20 0 -14 11 -22 43 -31 78 -20 98 -59 52 -104 -16
-17 -35 -25 -60 -25 -35 0 -85 35 -85 59 0 21 23 23 39 4 21 -27 48 -35 72
-23 34 19 21 37 -38 56 -60 20 -70 33 -59 79 11 42 88 53 129 17z m190 0 c9
-8 17 -21 17 -29 0 -18 -36 -17 -44 2 -3 9 -18 15 -36 15 -23 0 -30 -4 -30
-20 0 -14 11 -22 43 -31 78 -20 98 -59 52 -104 -16 -17 -35 -25 -60 -25 -35 0
-85 35 -85 59 0 21 23 23 39 4 21 -27 48 -35 72 -23 34 19 21 37 -38 56 -60
20 -70 33 -59 79 11 42 88 53 129 17z m510 6 c14 -7 17 -22 17 -82 0 -56 4
-75 15 -80 8 -3 15 -10 15 -16 0 -19 -30 -23 -48 -7 -15 13 -20 14 -36 1 -31
-23 -72 -17 -95 12 -12 15 -21 32 -21 39 0 26 36 56 75 62 47 7 66 19 58 39
-7 19 -69 19 -77 -1 -3 -8 -14 -15 -25 -15 -30 0 -14 40 23 55 30 13 64 11 99
-7z m320 0 c14 -7 17 -22 17 -82 0 -56 4 -75 15 -80 8 -3 15 -10 15 -16 0 -19
-30 -23 -48 -7 -15 13 -20 14 -36 1 -31 -23 -72 -17 -95 12 -12 15 -21 32 -21
39 0 26 36 56 75 62 47 7 66 19 58 39 -7 19 -69 19 -77 -1 -3 -8 -14 -15 -25
-15 -30 0 -14 40 23 55 30 13 64 11 99 -7z m320 0 c14 -7 17 -22 17 -82 0 -56
4 -75 15 -80 8 -3 15 -10 15 -16 0 -19 -30 -23 -48 -7 -15 13 -20 14 -36 1
-31 -23 -72 -17 -95 12 -12 15 -21 32 -21 39 0 26 36 56 75 62 47 7 66 19 58
39 -7 19 -69 19 -77 -1 -3 -8 -14 -15 -25 -15 -30 0 -14 40 23 55 30 13 64 11
99 -7z m222 -11 c10 -15 15 -47 15 -99 0 -71 -2 -78 -20 -78 -18 0 -20 7 -20
73 0 73 -9 97 -39 97 -35 0 -51 -31 -51 -102 0 -61 -2 -68 -20 -68 -19 0 -20
7 -20 100 0 93 1 100 20 100 11 0 20 -5 20 -11 0 -8 4 -8 13 -1 31 25 80 20
102 -11z m518 6 c9 -9 17 -24 17 -35 0 -25 -36 -24 -43 2 -7 28 -51 26 -71 -2
-18 -26 -21 -71 -6 -99 15 -27 70 -26 77 1 5 20 43 29 43 11 0 -41 -54 -76
-101 -66 -58 13 -88 93 -58 159 24 51 99 67 142 29z m190 5 c14 -7 17 -22 17
-82 0 -56 4 -75 15 -80 8 -3 15 -10 15 -16 0 -19 -30 -23 -48 -7 -15 13 -20
14 -36 1 -31 -23 -72 -17 -95 12 -12 15 -21 32 -21 39 0 26 36 56 75 62 47 7
66 19 58 39 -7 19 -69 19 -77 -1 -3 -8 -14 -15 -25 -15 -30 0 -14 40 23 55 30
13 64 11 99 -7z m232 -29 c45 -86 -24 -196 -101 -160 -23 10 -24 10 -24 -34 0
-38 -3 -45 -20 -45 -19 0 -20 7 -20 140 0 133 1 140 20 140 11 0 20 -4 20 -9
0 -6 12 -4 26 4 35 18 80 2 99 -36z m188 29 c14 -7 17 -22 17 -82 0 -56 4 -75
15 -80 8 -3 15 -10 15 -16 0 -19 -30 -23 -48 -7 -15 13 -20 14 -36 1 -31 -23
-72 -17 -95 12 -12 15 -21 32 -21 39 0 26 36 56 75 62 47 7 66 19 58 39 -7 19
-69 19 -77 -1 -3 -8 -14 -15 -25 -15 -30 0 -14 40 23 55 30 13 64 11 99 -7z
m876 -12 c11 -12 24 -36 27 -54 l7 -32 -77 0 c-42 0 -76 -2 -76 -4 0 -3 4 -16
10 -30 8 -21 16 -26 44 -26 25 0 38 6 46 20 12 22 40 27 40 7 0 -49 -75 -80
-128 -53 -75 39 -58 182 23 198 33 6 62 -3 84 -26z m194 6 c9 -8 17 -21 17
-29 0 -18 -36 -17 -44 2 -3 9 -18 15 -36 15 -23 0 -30 -4 -30 -20 0 -14 11
-22 43 -31 78 -20 98 -59 52 -104 -16 -17 -35 -25 -60 -25 -35 0 -85 35 -85
59 0 21 23 23 39 4 21 -27 48 -35 72 -23 34 19 21 37 -38 56 -60 20 -70 33
-59 79 11 42 88 53 129 17z m367 8 c0 -12 -10 -24 -24 -29 -30 -12 -36 -29
-36 -102 0 -52 -2 -59 -20 -59 -19 0 -20 7 -20 100 0 93 1 100 20 100 11 0 20
-4 20 -9 0 -6 12 -3 28 5 34 17 32 18 32 -6z m167 -12 c46 -43 37 -139 -16
-171 -43 -25 -78 -21 -112 12 -50 50 -37 145 25 175 36 19 72 13 103 -16z
m211 9 c9 -7 17 -6 24 1 16 16 81 15 96 0 8 -8 12 -45 12 -100 0 -81 -2 -88
-20 -88 -18 0 -20 7 -20 80 0 65 -3 82 -16 87 -35 13 -49 -10 -52 -91 -3 -68
-5 -76 -22 -76 -18 0 -20 7 -20 69 0 82 -6 101 -30 101 -36 0 -50 -28 -50
-101 0 -62 -2 -69 -20 -69 -19 0 -20 7 -20 100 0 93 1 100 20 100 11 0 20 -4
20 -9 0 -6 12 -4 26 4 26 13 47 11 72 -8z m1197 -10 c10 -15 15 -47 15 -99 0
-71 -2 -78 -20 -78 -18 0 -20 7 -20 73 0 73 -9 97 -39 97 -35 0 -51 -31 -51
-102 0 -61 -2 -68 -20 -68 -19 0 -20 7 -20 100 0 93 1 100 20 100 11 0 20 -5
20 -11 0 -8 4 -8 13 -1 31 25 80 20 102 -11z m624 -1 c11 -12 24 -36 27 -54
l7 -32 -77 0 c-42 0 -76 -2 -76 -4 0 -3 4 -16 10 -30 8 -21 16 -26 44 -26 25
0 38 6 46 20 12 22 40 27 40 7 0 -49 -75 -80 -128 -53 -75 39 -58 182 23 198
33 6 62 -3 84 -26z m561 14 c0 -12 -10 -24 -24 -29 -30 -12 -36 -29 -36 -102
0 -52 -2 -59 -20 -59 -19 0 -20 7 -20 100 0 93 1 100 20 100 11 0 20 -4 20 -9
0 -6 12 -3 28 5 34 17 32 18 32 -6z m246 4 c25 -12 37 -26 46 -55 33 -111 -76
-196 -153 -120 -50 50 -37 145 25 175 39 19 41 19 82 0z m239 -17 c10 -15 15
-47 15 -99 0 -71 -2 -78 -20 -78 -18 0 -20 7 -20 73 0 73 -9 97 -39 97 -35 0
-51 -31 -51 -102 0 -61 -2 -68 -20 -68 -19 0 -20 7 -20 100 0 93 1 100 20 100
11 0 20 -5 20 -11 0 -8 4 -8 13 -1 31 25 80 20 102 -11z m559 19 c23 -9 37
-24 45 -46 20 -58 18 -60 -64 -60 -41 0 -75 -2 -75 -4 0 -3 4 -16 10 -30 8
-21 16 -26 44 -26 25 0 38 6 46 20 13 24 40 27 40 5 0 -25 -46 -65 -74 -65
-60 0 -106 46 -106 108 0 38 38 94 70 103 14 4 26 7 28 8 1 1 18 -5 36 -13z
m234 -8 c7 -7 12 -37 12 -81 0 -53 4 -73 17 -82 17 -13 10 -35 -12 -35 -7 0
-20 6 -27 14 -12 11 -17 11 -33 0 -31 -23 -71 -17 -94 12 -12 15 -21 32 -21
39 0 27 36 56 80 63 36 6 45 12 45 27 0 30 -50 33 -74 4 -21 -26 -42 -18 -34
12 11 41 101 58 141 27z m-11167 -64 l25 -77 24 77 c20 65 27 76 46 76 l23 0
-34 -94 c-64 -178 -69 -186 -112 -186 -14 0 -23 6 -23 15 0 8 9 15 20 15 36 0
35 43 -4 150 l-35 100 22 0 c20 0 26 -11 48 -76z m1639 -24 c0 -93 -1 -100
-20 -100 -19 0 -20 7 -20 100 0 93 1 100 20 100 19 0 20 -7 20 -100z m181 24
l25 -77 24 77 c20 65 27 76 46 76 l23 0 -34 -94 c-64 -178 -69 -186 -112 -186
-14 0 -23 6 -23 15 0 8 9 15 20 15 36 0 35 43 -4 150 l-35 100 22 0 c20 0 26
-11 48 -76z m4189 -24 c0 -93 -1 -100 -20 -100 -19 0 -20 7 -20 100 0 93 1
100 20 100 19 0 20 -7 20 -100z m170 0 c0 -93 -1 -100 -20 -100 -19 0 -20 7
-20 100 0 93 1 100 20 100 19 0 20 -7 20 -100z m190 0 c0 -93 -1 -100 -20
-100 -19 0 -20 7 -20 100 0 93 1 100 20 100 19 0 20 -7 20 -100z m1460 30 c18
-72 22 -71 40 13 11 49 16 57 36 57 19 0 24 -9 40 -72 l17 -73 20 73 c15 57
23 72 38 72 10 0 19 -1 19 -2 0 -2 -13 -46 -28 -98 -23 -77 -32 -96 -48 -98
-18 -3 -24 7 -41 70 l-19 73 -18 -73 c-16 -63 -21 -73 -39 -70 -16 2 -25 22
-48 98 -16 52 -29 96 -29 98 0 2 10 2 22 0 18 -2 25 -15 38 -68z m270 -30 c0
-93 -1 -100 -20 -100 -19 0 -20 7 -20 100 0 93 1 100 20 100 19 0 20 -7 20
-100z m400 0 c0 -93 -1 -100 -20 -100 -19 0 -20 7 -20 100 0 93 1 100 20 100
19 0 20 -7 20 -100z m1460 0 c0 -93 -1 -100 -20 -100 -19 0 -20 7 -20 100 0
93 1 100 20 100 19 0 20 -7 20 -100z m8120 -240 c0 -5 -7 -10 -16 -10 -8 0
-12 5 -9 10 3 6 10 10 16 10 5 0 9 -4 9 -10z m-50 -30 c0 -5 -7 -10 -16 -10
-8 0 -12 5 -9 10 3 6 10 10 16 10 5 0 9 -4 9 -10z m-55 -30 c-3 -5 -11 -10
-16 -10 -6 0 -7 5 -4 10 3 6 11 10 16 10 6 0 7 -4 4 -10z m-18637 -143 c2
-132 2 -137 -18 -137 -19 0 -20 6 -20 133 0 74 3 137 7 141 21 21 28 -10 31
-137z m442 123 c0 -11 -7 -20 -15 -20 -8 0 -15 -9 -15 -20 0 -11 7 -20 15 -20
8 0 15 -7 15 -15 0 -8 -7 -15 -15 -15 -12 0 -15 -16 -15 -85 0 -78 -2 -85 -20
-85 -18 0 -20 7 -20 85 0 69 -3 85 -15 85 -8 0 -15 7 -15 15 0 8 7 15 15 15 9
0 15 9 15 24 0 29 24 56 51 56 12 0 19 -7 19 -20z m-142 -33 c2 -15 9 -27 18
-27 8 0 14 -7 14 -15 0 -8 -7 -15 -15 -15 -12 0 -15 -14 -15 -70 0 -56 3 -70
15 -70 18 0 20 -26 3 -33 -7 -2 -23 -1 -35 4 -21 8 -23 15 -23 89 0 64 -3 80
-15 80 -8 0 -15 7 -15 15 0 8 7 15 15 15 10 0 15 10 15 31 0 24 4 30 18 27 10
-2 18 -14 20 -31z m18287 23 c-3 -5 -13 -10 -21 -10 -8 0 -12 5 -9 10 3 6 13
10 21 10 8 0 12 -4 9 -10z m-55 -30 c0 -5 -7 -10 -16 -10 -8 0 -12 5 -9 10 3
6 10 10 16 10 5 0 9 -4 9 -10z m-18615 -61 c45 -86 -24 -196 -101 -160 -23 10
-24 10 -24 -34 0 -38 -3 -45 -20 -45 -19 0 -20 7 -20 140 0 133 1 140 20 140
11 0 20 -4 20 -9 0 -6 12 -4 26 4 35 18 80 2 99 -36z m268 29 c14 -7 17 -22
17 -82 0 -56 4 -75 15 -80 8 -3 15 -10 15 -16 0 -19 -30 -23 -48 -7 -15 13
-20 14 -36 1 -31 -23 -72 -17 -95 12 -12 15 -21 32 -21 39 0 26 36 56 75 62
47 7 66 19 58 39 -7 19 -69 19 -77 -1 -3 -8 -14 -15 -25 -15 -30 0 -14 40 23
55 30 13 64 11 99 -7z m424 -10 c46 -43 37 -139 -16 -171 -43 -25 -78 -21
-112 12 -50 50 -37 145 25 175 36 19 72 13 103 -16z m163 12 c0 -12 -10 -24
-24 -29 -30 -12 -36 -29 -36 -102 0 -52 -2 -59 -20 -59 -19 0 -20 7 -20 100 0
93 1 100 20 100 11 0 20 -4 20 -9 0 -6 12 -3 28 5 34 17 32 18 32 -6z m168 -3
c9 -7 17 -6 24 1 16 16 81 15 96 0 8 -8 12 -45 12 -100 0 -81 -2 -88 -20 -88
-18 0 -20 7 -20 80 0 65 -3 82 -16 87 -35 13 -49 -10 -52 -91 -3 -68 -5 -76
-22 -76 -18 0 -20 7 -20 69 0 82 -6 101 -30 101 -36 0 -50 -28 -50 -101 0 -62
-2 -69 -20 -69 -19 0 -20 7 -20 100 0 93 1 100 20 100 11 0 20 -4 20 -9 0 -6
12 -4 26 4 26 13 47 11 72 -8z m315 -5 c9 -8 17 -21 17 -29 0 -18 -36 -17 -44
2 -3 9 -18 15 -36 15 -23 0 -30 -4 -30 -20 0 -14 11 -22 43 -31 78 -20 98 -59
52 -104 -16 -17 -35 -25 -60 -25 -35 0 -85 35 -85 59 0 21 23 23 39 4 21 -27
48 -35 72 -23 34 19 21 37 -38 56 -60 20 -70 33 -59 79 11 42 88 53 129 17z
m17222 8 c-3 -5 -11 -10 -16 -10 -6 0 -7 5 -4 10 3 6 11 10 16 10 6 0 7 -4 4
-10z m-50 -30 c-3 -5 -10 -10 -16 -10 -5 0 -9 5 -9 10 0 6 7 10 16 10 8 0 12
-4 9 -10z m-50 -30 c-3 -5 -10 -10 -16 -10 -5 0 -9 5 -9 10 0 6 7 10 16 10 8
0 12 -4 9 -10z m-60 -30 c-3 -5 -11 -10 -16 -10 -6 0 -7 5 -4 10 3 6 11 10 16
10 6 0 7 -4 4 -10z m-50 -30 c-3 -5 -10 -10 -16 -10 -5 0 -9 5 -9 10 0 6 7 10
16 10 8 0 12 -4 9 -10z m-50 -30 c-3 -5 -10 -10 -16 -10 -5 0 -9 5 -9 10 0 6
7 10 16 10 8 0 12 -4 9 -10z m-16855 -20 c0 -13 -7 -20 -20 -20 -13 0 -20 7
-20 20 0 13 7 20 20 20 13 0 20 -7 20 -20z m16840 -36 c0 -8 -4 -12 -10 -9 -5
3 -10 10 -10 16 0 5 5 9 10 9 6 0 10 -7 10 -16z m55 -34 c3 -5 -1 -10 -9 -10
-8 0 -18 5 -21 10 -3 6 1 10 9 10 8 0 18 -4 21 -10z m50 -30 c3 -5 -1 -10 -9
-10 -9 0 -16 5 -16 10 0 6 4 10 9 10 6 0 13 -4 16 -10z m50 -30 c3 -5 2 -10
-4 -10 -5 0 -13 5 -16 10 -3 6 -2 10 4 10 5 0 13 -4 16 -10z m55 -30 c0 -5 -4
-10 -9 -10 -6 0 -13 5 -16 10 -3 6 1 10 9 10 9 0 16 -4 16 -10z m55 -30 c3 -5
-1 -10 -9 -10 -8 0 -18 5 -21 10 -3 6 1 10 9 10 8 0 18 -4 21 -10z m50 -30 c3
-5 2 -10 -4 -10 -5 0 -13 5 -16 10 -3 6 -2 10 4 10 5 0 13 -4 16 -10z m55 -30
c0 -5 -4 -10 -9 -10 -6 0 -13 5 -16 10 -3 6 1 10 9 10 9 0 16 -4 16 -10z m50
-30 c0 -5 -4 -10 -9 -10 -6 0 -13 5 -16 10 -3 6 1 10 9 10 9 0 16 -4 16 -10z
m50 -30 c0 -5 -7 -7 -15 -4 -8 4 -15 8 -15 10 0 2 7 4 15 4 8 0 15 -4 15 -10z
m60 -32 c0 -13 -23 -5 -28 10 -2 7 2 10 12 6 9 -3 16 -11 16 -16z m50 -30 c0
-13 -23 -5 -28 10 -2 7 2 10 12 6 9 -3 16 -11 16 -16z m47 -34 c-9 -9 -28 6
-21 18 4 6 10 6 17 -1 6 -6 8 -13 4 -17z m63 -26 c0 -6 -7 -7 -16 -4 -9 3 -18
6 -20 6 -3 0 -3 4 1 10 7 11 35 2 35 -12z m50 -30 c0 -13 -23 -5 -28 10 -2 7
2 10 12 6 9 -3 16 -11 16 -16z m48 -27 c3 -8 -1 -12 -9 -9 -7 2 -15 10 -17 17
-3 8 1 12 9 9 7 -2 15 -10 17 -17z m52 -21 c8 -5 12 -12 9 -15 -8 -8 -39 5
-39 16 0 11 11 11 30 -1z m-31 -41 c-16 -10 -23 -4 -14 10 3 6 11 8 17 5 6 -4
5 -9 -3 -15z m-53 -31 c-10 -6 -20 -7 -24 -3 -9 8 20 25 31 18 5 -3 2 -10 -7
-15z m-54 -30 c-6 -6 -15 -8 -19 -4 -4 4 -1 11 7 16 19 12 27 3 12 -12z m-50
-30 c-6 -6 -15 -8 -19 -4 -4 4 -1 11 7 16 19 12 27 3 12 -12z m-47 -28 c-3 -5
-10 -10 -16 -10 -5 0 -9 5 -9 10 0 6 7 10 16 10 8 0 12 -4 9 -10z m-50 -30
c-3 -5 -10 -10 -16 -10 -5 0 -9 5 -9 10 0 6 7 10 16 10 8 0 12 -4 9 -10z m-50
-30 c-3 -5 -13 -10 -21 -10 -8 0 -12 5 -9 10 3 6 13 10 21 10 8 0 12 -4 9 -10z
m-18810 -340 c0 -126 -6 -153 -40 -168 -58 -27 -108 -4 -120 56 -6 27 -4 32
12 32 12 0 23 -12 30 -31 10 -25 16 -30 40 -27 l28 3 3 110 c3 126 5 138 29
133 16 -3 18 -16 18 -108z m293 82 c3 -17 -2 -22 -17 -22 -14 0 -21 6 -21 18
0 38 33 41 38 4z m1460 -116 l3 -136 -28 0 c-15 0 -42 -2 -60 -6 -27 -5 -37
-1 -63 24 -23 24 -30 39 -30 71 0 79 39 119 104 108 36 -6 36 -6 36 32 0 40 7
54 24 48 7 -2 12 -55 14 -141z m180 96 c3 -44 5 -45 37 -33 47 19 105 -32 105
-92 0 -72 -53 -127 -109 -111 -14 4 -36 6 -48 5 -23 -2 -23 -2 -23 139 0 129
2 141 18 138 12 -2 18 -15 20 -46z m430 20 c3 -17 -2 -22 -17 -22 -14 0 -21 6
-21 18 0 38 33 41 38 4z m80 -115 c2 -132 2 -137 -18 -137 -19 0 -20 6 -20
133 0 74 3 137 7 141 21 21 28 -10 31 -137z m220 -1 l3 -136 -28 0 c-15 0 -42
-2 -60 -6 -27 -5 -37 -1 -63 24 -23 24 -30 39 -30 71 0 79 39 119 104 108 36
-6 36 -6 36 32 0 40 7 54 24 48 7 -2 12 -55 14 -141z m292 95 l0 -49 29 14
c34 17 74 6 90 -25 6 -11 11 -54 11 -95 0 -69 -2 -76 -20 -76 -18 0 -20 7 -20
69 0 85 -6 101 -35 101 -42 0 -55 -25 -55 -101 0 -62 -2 -69 -20 -69 -19 0
-20 7 -20 133 0 74 3 137 7 140 20 21 33 4 33 -42z m1048 -94 c2 -132 2 -137
-18 -137 -19 0 -20 6 -20 133 0 74 3 137 7 141 21 21 28 -10 31 -137z m492 94
l0 -49 29 14 c34 17 74 6 90 -25 6 -11 11 -54 11 -95 0 -69 -2 -76 -20 -76
-18 0 -20 7 -20 73 0 75 -9 97 -41 97 -35 0 -49 -28 -49 -101 0 -62 -2 -69
-20 -69 -19 0 -20 7 -20 133 0 74 3 137 7 140 20 21 33 4 33 -42z m908 21 c3
-17 -2 -22 -17 -22 -14 0 -21 6 -21 18 0 38 33 41 38 4z m82 -112 c0 -133 -1
-140 -20 -140 -19 0 -20 7 -20 133 0 74 3 137 7 140 3 4 12 7 20 7 10 0 13
-30 13 -140z m90 0 c0 -133 -1 -140 -20 -140 -19 0 -20 7 -20 133 0 74 3 137
7 140 3 4 12 7 20 7 10 0 13 -30 13 -140z m380 91 l0 -49 29 14 c34 17 74 6
90 -25 6 -11 11 -54 11 -95 0 -69 -2 -76 -20 -76 -18 0 -20 7 -20 73 0 75 -9
97 -41 97 -35 0 -49 -28 -49 -101 0 -62 -2 -69 -20 -69 -19 0 -20 7 -20 133 0
74 3 137 7 140 20 21 33 4 33 -42z m1270 0 l0 -49 29 14 c34 17 74 6 90 -25 6
-11 11 -54 11 -95 0 -69 -2 -76 -20 -76 -18 0 -20 7 -20 73 0 75 -9 97 -41 97
-35 0 -49 -28 -49 -101 0 -62 -2 -69 -20 -69 -19 0 -20 7 -20 133 0 74 3 137
7 140 20 21 33 4 33 -42z m560 29 c0 -11 -7 -20 -15 -20 -8 0 -15 -9 -15 -20
0 -11 7 -20 15 -20 8 0 15 -7 15 -15 0 -8 -7 -15 -15 -15 -12 0 -15 -16 -15
-85 0 -78 -2 -85 -20 -85 -18 0 -20 7 -20 85 0 69 -3 85 -15 85 -8 0 -15 7
-15 15 0 8 7 15 15 15 9 0 15 9 15 24 0 29 24 56 51 56 12 0 19 -7 19 -20z
m1290 0 c0 -11 -7 -20 -15 -20 -8 0 -15 -9 -15 -20 0 -11 7 -20 15 -20 8 0 15
-7 15 -15 0 -8 -7 -15 -15 -15 -12 0 -15 -16 -15 -85 0 -78 -2 -85 -20 -85
-18 0 -20 7 -20 85 0 69 -3 85 -15 85 -8 0 -15 7 -15 15 0 8 7 15 15 15 9 0
15 9 15 24 0 29 24 56 51 56 12 0 19 -7 19 -20z m170 -29 l0 -49 29 14 c34 17
74 6 90 -25 6 -11 11 -54 11 -95 0 -69 -2 -76 -20 -76 -18 0 -20 7 -20 73 0
75 -9 97 -41 97 -35 0 -49 -28 -49 -101 0 -62 -2 -69 -20 -69 -19 0 -20 7 -20
133 0 74 3 137 7 140 20 21 33 4 33 -42z m640 -91 c0 -133 -1 -140 -20 -140
-19 0 -20 7 -20 133 0 74 3 137 7 140 3 4 12 7 20 7 10 0 13 -30 13 -140z
m190 91 l0 -49 29 14 c34 17 74 6 90 -25 6 -11 11 -54 11 -95 0 -69 -2 -76
-20 -76 -18 0 -20 7 -20 73 0 73 -9 97 -39 97 -35 0 -51 -31 -51 -102 0 -61
-2 -68 -20 -68 -19 0 -20 7 -20 133 0 74 3 137 7 140 20 21 33 4 33 -42z
m-7222 -4 c2 -15 9 -27 18 -27 8 0 14 -7 14 -15 0 -8 -7 -15 -15 -15 -12 0
-15 -14 -15 -70 0 -56 3 -70 15 -70 18 0 20 -26 3 -33 -7 -2 -23 -1 -35 4 -21
8 -23 15 -23 89 0 64 -3 80 -15 80 -8 0 -15 7 -15 15 0 8 7 15 15 15 10 0 15
10 15 31 0 24 4 30 18 27 10 -2 18 -14 20 -31z m640 0 c2 -15 9 -27 18 -27 8
0 14 -7 14 -15 0 -8 -7 -15 -15 -15 -12 0 -15 -14 -15 -70 0 -56 3 -70 15 -70
18 0 20 -26 3 -33 -7 -2 -23 -1 -35 4 -21 8 -23 15 -23 89 0 64 -3 80 -15 80
-8 0 -15 7 -15 15 0 8 7 15 15 15 10 0 15 10 15 31 0 24 4 30 18 27 10 -2 18
-14 20 -31z m900 0 c2 -15 9 -27 18 -27 8 0 14 -7 14 -15 0 -8 -7 -15 -15 -15
-12 0 -15 -14 -15 -70 0 -56 3 -70 15 -70 18 0 20 -26 3 -33 -7 -2 -23 -1 -35
4 -21 8 -23 15 -23 89 0 64 -3 80 -15 80 -8 0 -15 7 -15 15 0 8 7 15 15 15 10
0 15 10 15 31 0 24 4 30 18 27 10 -2 18 -14 20 -31z m530 0 c2 -15 9 -27 18
-27 8 0 14 -7 14 -15 0 -8 -7 -15 -15 -15 -12 0 -15 -14 -15 -70 0 -56 3 -70
15 -70 18 0 20 -26 3 -33 -7 -2 -23 -1 -35 4 -21 8 -23 15 -23 89 0 64 -3 80
-15 80 -8 0 -15 7 -15 15 0 8 7 15 15 15 10 0 15 10 15 31 0 24 4 30 18 27 10
-2 18 -14 20 -31z m2200 0 c2 -15 9 -27 18 -27 8 0 14 -7 14 -15 0 -8 -7 -15
-15 -15 -12 0 -15 -14 -15 -70 0 -56 3 -70 15 -70 20 0 19 -26 -1 -34 -8 -3
-24 -1 -35 4 -16 9 -19 22 -19 90 0 64 -3 80 -15 80 -8 0 -15 7 -15 15 0 8 7
15 15 15 10 0 15 10 15 31 0 24 4 30 18 27 10 -2 18 -14 20 -31z m950 0 c2
-15 9 -27 18 -27 8 0 14 -7 14 -15 0 -8 -7 -15 -15 -15 -12 0 -15 -14 -15 -70
0 -56 3 -70 15 -70 18 0 20 -26 3 -33 -7 -2 -23 -1 -35 4 -21 8 -23 15 -23 89
0 64 -3 80 -15 80 -8 0 -15 7 -15 15 0 8 7 15 15 15 10 0 15 10 15 31 0 24 4
30 18 27 10 -2 18 -14 20 -31z m1900 0 c2 -15 9 -27 18 -27 8 0 14 -7 14 -15
0 -8 -7 -15 -15 -15 -12 0 -15 -14 -15 -70 0 -56 3 -70 15 -70 19 0 20 -29 1
-36 -8 -3 -24 -1 -35 6 -19 9 -21 20 -21 90 0 64 -3 80 -15 80 -8 0 -15 7 -15
15 0 8 7 15 15 15 10 0 15 10 15 31 0 24 4 30 18 27 10 -2 18 -14 20 -31z
m-9781 -49 c46 -43 37 -139 -16 -171 -43 -25 -78 -21 -112 12 -50 50 -37 145
25 175 36 19 72 13 103 -16z m298 -1 c10 -15 15 -47 15 -99 0 -71 -2 -78 -20
-78 -18 0 -20 7 -20 73 0 73 -9 97 -39 97 -35 0 -51 -31 -51 -102 0 -61 -2
-68 -20 -68 -19 0 -20 7 -20 100 0 93 1 100 20 100 11 0 20 -5 20 -11 0 -8 4
-8 13 -1 31 25 80 20 102 -11z m508 5 c9 -8 17 -21 17 -29 0 -18 -36 -17 -44
2 -3 9 -18 15 -36 15 -23 0 -30 -4 -30 -20 0 -14 11 -22 43 -31 78 -20 98 -59
52 -104 -16 -17 -35 -25 -60 -25 -35 0 -85 35 -85 59 0 21 23 23 39 4 21 -27
48 -35 72 -23 34 19 21 37 -38 56 -60 20 -70 33 -59 79 11 42 88 53 129 17z
m300 6 c14 -7 17 -22 17 -82 0 -56 4 -75 15 -80 8 -3 15 -10 15 -16 0 -19 -30
-23 -48 -7 -15 13 -20 14 -36 1 -31 -23 -72 -17 -95 12 -12 15 -21 32 -21 39
0 26 36 56 75 62 47 7 66 19 58 39 -7 19 -69 19 -77 -1 -3 -8 -14 -15 -25 -15
-30 0 -14 40 23 55 30 13 64 11 99 -7z m232 -11 c10 -15 15 -47 15 -99 0 -71
-2 -78 -20 -78 -18 0 -20 7 -20 73 0 73 -9 97 -39 97 -35 0 -51 -31 -51 -102
0 -61 -2 -68 -20 -68 -19 0 -20 7 -20 100 0 93 1 100 20 100 11 0 20 -5 20
-11 0 -8 4 -8 13 -1 31 25 80 20 102 -11z m1741 13 c1 0 9 -15 18 -34 29 -61
25 -66 -59 -66 -41 0 -75 -2 -75 -4 0 -3 4 -16 10 -30 8 -21 16 -26 44 -26 25
0 38 6 46 20 12 22 40 27 40 7 0 -26 -31 -56 -64 -62 -76 -15 -133 58 -107
138 20 59 58 81 116 65 16 -4 31 -8 31 -8z m421 -12 c47 -44 38 -139 -16 -171
-43 -25 -78 -21 -112 12 -50 50 -37 145 25 175 36 19 72 13 103 -16z m210 0
c47 -44 38 -139 -16 -171 -43 -25 -78 -21 -112 12 -50 50 -37 145 25 175 36
19 72 13 103 -16z m286 4 c9 -8 17 -21 17 -29 0 -18 -36 -17 -44 2 -3 9 -18
15 -36 15 -23 0 -30 -4 -30 -20 0 -14 11 -22 43 -31 78 -20 98 -59 52 -104
-16 -17 -35 -25 -60 -25 -35 0 -85 35 -85 59 0 21 23 23 39 4 21 -27 48 -35
72 -23 34 19 21 37 -38 56 -60 20 -70 33 -59 79 11 42 88 53 129 17z m620 6
c14 -7 17 -22 17 -82 0 -56 4 -75 15 -80 8 -3 15 -10 15 -16 0 -19 -30 -23
-48 -7 -15 13 -20 14 -36 1 -31 -23 -72 -17 -95 12 -12 15 -21 32 -21 39 0 26
36 56 75 62 51 7 69 21 54 39 -15 19 -65 18 -73 -1 -3 -8 -14 -15 -25 -15 -30
0 -14 40 23 55 30 13 64 11 99 -7z m1060 -5 c9 -9 17 -24 17 -35 0 -25 -36
-24 -43 2 -7 28 -51 26 -71 -2 -18 -26 -21 -71 -6 -99 15 -27 70 -26 77 1 5
20 43 29 43 11 0 -41 -54 -76 -101 -66 -58 13 -88 93 -58 159 24 51 99 67 142
29z m400 5 c14 -7 17 -22 17 -82 0 -56 4 -75 15 -80 8 -3 15 -10 15 -16 0 -19
-30 -23 -48 -7 -15 13 -20 14 -36 1 -31 -23 -72 -17 -95 12 -12 15 -21 32 -21
39 0 26 36 56 75 62 47 7 66 19 58 39 -7 19 -69 19 -77 -1 -3 -8 -14 -15 -25
-15 -30 0 -14 40 23 55 30 13 64 11 99 -7z m222 -11 c10 -15 15 -47 15 -99 0
-71 -2 -78 -20 -78 -18 0 -20 7 -20 73 0 73 -9 97 -39 97 -35 0 -51 -31 -51
-102 0 -61 -2 -68 -20 -68 -19 0 -20 7 -20 100 0 93 1 100 20 100 11 0 20 -5
20 -11 0 -8 4 -8 13 -1 31 25 80 20 102 -11z m389 19 c23 -9 37 -24 45 -46 20
-58 18 -60 -64 -60 -41 0 -75 -2 -75 -4 0 -3 4 -16 10 -30 8 -21 16 -26 44
-26 25 0 38 6 46 20 12 22 40 27 40 7 0 -26 -31 -56 -64 -62 -64 -12 -116 37
-116 110 0 32 41 88 70 96 14 4 26 7 28 8 1 1 18 -5 36 -13z m640 0 c23 -9 37
-24 45 -46 20 -58 18 -60 -64 -60 -41 0 -75 -2 -75 -4 0 -3 4 -16 10 -30 8
-21 16 -26 44 -26 25 0 38 6 46 20 12 22 40 27 40 7 0 -26 -31 -56 -64 -62
-64 -12 -116 37 -116 110 0 32 41 88 70 96 14 4 26 7 28 8 1 1 18 -5 36 -13z
m926 -11 c0 -18 -5 -25 -20 -25 -28 0 -40 -30 -40 -99 0 -54 -2 -61 -20 -61
-19 0 -20 7 -20 100 0 93 1 100 20 100 11 0 20 -4 20 -9 0 -6 12 -3 28 5 34
18 32 18 32 -11z m144 11 c23 -9 37 -24 45 -46 20 -58 18 -60 -64 -60 -41 0
-75 -2 -75 -4 0 -3 4 -16 10 -30 8 -21 16 -26 44 -26 25 0 38 6 46 20 12 22
40 27 40 7 0 -26 -31 -56 -64 -62 -64 -12 -116 37 -116 110 0 32 41 88 70 96
14 4 26 7 28 8 1 1 18 -5 36 -13z m343 -18 c47 -44 37 -145 -17 -173 -44 -23
-78 -19 -111 14 -50 50 -37 145 25 175 36 19 72 13 103 -16z m607 18 c23 -9
37 -24 45 -46 20 -58 18 -60 -64 -60 -41 0 -75 -2 -75 -4 0 -3 4 -16 10 -30 8
-21 16 -26 44 -26 25 0 38 6 46 20 12 22 40 27 40 7 0 -26 -31 -56 -64 -62
-64 -12 -116 37 -116 110 0 32 41 88 70 96 14 4 26 7 28 8 1 1 18 -5 36 -13z
m221 0 l35 -15 0 -74 c0 -57 4 -76 15 -81 8 -3 15 -10 15 -16 0 -19 -30 -23
-48 -7 -15 13 -20 14 -36 1 -31 -23 -72 -17 -95 12 -12 15 -21 32 -21 39 0 26
36 56 75 62 51 7 69 21 54 39 -15 19 -65 18 -73 -1 -3 -8 -14 -15 -25 -15 -30
0 -14 40 23 56 39 17 40 17 81 0z m628 -13 c9 -9 17 -24 17 -35 0 -25 -36 -24
-43 2 -7 28 -51 26 -71 -2 -18 -26 -21 -71 -6 -99 15 -27 70 -26 77 1 5 20 43
29 43 11 0 -41 -54 -76 -101 -66 -84 19 -95 165 -14 201 34 15 71 10 98 -13z
m172 13 l35 -15 0 -72 c0 -55 4 -75 17 -84 17 -13 10 -35 -12 -35 -7 0 -20 6
-27 14 -12 11 -17 11 -33 0 -31 -23 -71 -17 -94 12 -12 15 -21 32 -21 39 0 26
36 56 75 62 51 7 69 21 54 39 -15 19 -65 18 -73 -1 -3 -8 -14 -15 -25 -15 -30
0 -14 40 23 56 39 17 40 17 81 0z m189 -19 c-3 -9 -14 -17 -25 -17 -27 0 -39
-31 -39 -99 0 -54 -2 -61 -20 -61 -19 0 -20 7 -20 100 0 93 1 100 20 100 11 0
20 -4 20 -9 0 -6 12 -3 27 4 30 16 47 7 37 -18z m150 19 c23 -9 37 -24 45 -46
20 -58 18 -60 -64 -60 -41 0 -75 -2 -75 -4 0 -3 4 -16 10 -30 8 -21 16 -26 44
-26 25 0 38 6 46 20 12 22 40 27 40 7 0 -26 -31 -56 -64 -62 -64 -12 -116 37
-116 110 0 32 41 88 70 96 14 4 26 7 28 8 1 1 18 -5 36 -13z m-10604 -96 c0
-93 -1 -100 -20 -100 -19 0 -20 7 -20 100 0 93 1 100 20 100 19 0 20 -7 20
-100z m402 18 c3 -81 3 -83 30 -86 39 -5 58 29 58 105 0 56 2 63 20 63 19 0
20 -7 20 -100 0 -93 -1 -100 -20 -100 -11 0 -20 5 -20 11 0 5 -10 3 -22 -5
-32 -22 -55 -20 -83 9 -22 22 -25 32 -25 105 0 73 2 80 20 80 17 0 19 -8 22
-82z m1460 0 c3 -81 3 -83 30 -86 39 -5 58 29 58 105 0 56 2 63 20 63 19 0 20
-7 20 -100 0 -93 -1 -100 -20 -100 -11 0 -20 5 -20 11 0 5 -10 3 -22 -5 -32
-22 -55 -20 -83 9 -22 22 -25 32 -25 105 0 73 2 80 20 80 17 0 19 -8 22 -82z
m208 -18 c0 -93 -1 -100 -20 -100 -19 0 -20 7 -20 100 0 93 1 100 20 100 19 0
20 -7 20 -100z m2760 30 c18 -72 22 -71 40 13 11 49 16 57 36 57 19 0 24 -9
40 -72 17 -73 18 -73 26 -38 27 107 29 110 48 110 11 0 20 -1 20 -2 0 -2 -13
-46 -28 -98 -23 -77 -32 -96 -48 -98 -18 -3 -24 7 -41 70 l-19 73 -18 -73
c-16 -64 -21 -73 -39 -70 -17 2 -26 20 -49 98 -15 52 -28 96 -28 98 0 2 10 2
22 0 18 -2 25 -15 38 -68z m280 -30 c0 -93 -1 -100 -20 -100 -19 0 -20 7 -20
100 0 93 1 100 20 100 19 0 20 -7 20 -100z m1258 88 c9 -9 12 -9 12 0 0 7 9
12 20 12 19 0 20 -7 20 -107 0 -119 -10 -151 -53 -171 -46 -22 -117 5 -117 44
0 18 24 18 40 -1 15 -18 61 -20 78 -3 7 7 12 23 12 37 0 19 -3 22 -12 13 -7
-7 -29 -12 -49 -12 -29 0 -43 6 -58 26 -35 44 -25 128 18 161 21 16 74 16 89
1z m1192 -57 c0 -85 6 -101 36 -101 36 0 54 36 54 107 0 56 2 63 20 63 19 0
20 -7 20 -100 0 -93 -1 -100 -20 -100 -11 0 -20 5 -20 11 0 5 -10 3 -22 -5
-32 -22 -55 -20 -83 9 -22 22 -25 32 -25 105 0 73 2 80 20 80 18 0 20 -7 20
-69z m320 0 c0 -85 6 -101 36 -101 36 0 54 36 54 107 0 56 2 63 20 63 19 0 20
-7 20 -100 0 -93 -1 -100 -20 -100 -11 0 -20 5 -20 11 0 5 -10 3 -22 -5 -32
-22 -55 -20 -83 9 -22 22 -25 32 -25 105 0 73 2 80 20 80 18 0 20 -7 20 -69z
m2860 -111 c0 -13 -7 -20 -20 -20 -13 0 -20 7 -20 20 0 13 7 20 20 20 13 0 20
-7 20 -20z m-7280 -1095 c59 -31 60 -38 60 -445 0 -407 -1 -414 -60 -445 -26
-13 -250 -15 -1930 -15 -2089 0 -1942 -4 -1975 60 -22 43 -22 757 0 800 33 64
-114 59 1973 60 1682 0 1906 -2 1932 -15z"/>
<path d="M1463 9896 c-94 -43 -111 -232 -27 -305 59 -53 154 -37 191 32 24 44
24 170 0 214 -33 61 -104 86 -164 59z"/>
<path d="M5853 9896 c-94 -43 -111 -232 -27 -305 59 -53 154 -37 191 32 24 44
24 170 0 214 -33 61 -104 86 -164 59z"/>
<path d="M7837 9774 c-15 -49 -27 -92 -27 -96 0 -5 25 -8 55 -8 38 0 55 4 55
13 0 7 -13 50 -28 96 l-28 84 -27 -89z"/>
<path d="M8280 9820 l0 -70 63 0 c81 0 107 17 107 70 0 57 -19 70 -101 70
l-69 0 0 -70z"/>
<path d="M2424 9768 c-30 -14 -44 -50 -44 -109 0 -43 5 -55 30 -81 26 -25 36
-29 62 -24 43 8 56 22 69 69 27 102 -38 184 -117 145z"/>
<path d="M3945 9755 c-39 -38 -32 -45 45 -45 77 0 88 12 50 50 -27 27 -66 25
-95 -5z"/>
<path d="M4428 9655 c-3 -4 -26 -11 -49 -16 -54 -12 -69 -25 -69 -55 0 -16 8
-28 25 -36 37 -17 81 5 95 48 12 34 10 71 -2 59z"/>
<path d="M6335 9750 c-12 -14 -20 -41 -23 -79 -4 -50 -1 -61 20 -86 26 -30 76
-37 103 -15 37 31 43 126 10 176 -20 32 -83 34 -110 4z"/>
<path d="M6745 9755 c-39 -38 -32 -45 45 -45 77 0 88 12 50 50 -27 27 -66 25
-95 -5z"/>
<path d="M20010 8749 c0 -34 51 -118 100 -166 117 -115 292 -175 510 -175 294
1 557 137 605 312 3 14 -7 2 -24 -26 -54 -93 -148 -159 -291 -206 -124 -40
-318 -50 -451 -23 -185 37 -332 122 -408 236 -23 34 -41 55 -41 48z"/>
<path d="M1310 8560 c0 -40 0 -40 39 -40 57 0 71 8 71 40 0 32 -14 40 -71 40
-39 0 -39 0 -39 -40z"/>
<path d="M1310 8435 l0 -45 38 0 c45 0 86 19 90 43 6 32 -17 47 -74 47 l-54 0
0 -45z"/>
<path d="M1937 8512 c-19 -21 -22 -73 -7 -103 7 -12 21 -19 40 -19 35 0 50 23
50 74 0 59 -48 86 -83 48z"/>
<path d="M6727 8512 c-19 -21 -22 -73 -7 -103 7 -12 21 -19 40 -19 35 0 50 23
50 74 0 59 -48 86 -83 48z"/>
<path d="M2757 8512 c-20 -22 -22 -82 -4 -104 6 -8 20 -18 30 -22 25 -8 67 36
67 71 0 62 -57 95 -93 55z"/>
<path d="M3168 8443 c-24 -6 -32 -35 -13 -49 28 -21 63 -3 78 39 5 14 1 17
-21 16 -15 -1 -34 -3 -44 -6z"/>
<path d="M3763 8518 c-27 -35 -25 -38 33 -38 56 0 56 0 42 23 -17 25 -60 34
-75 15z"/>
<path d="M4078 8443 c-24 -6 -32 -35 -13 -49 28 -21 63 -3 78 39 5 14 1 17
-21 16 -15 -1 -34 -3 -44 -6z"/>
<path d="M4280 8511 c-14 -27 -13 -94 2 -109 20 -20 66 -14 79 9 14 27 6 99
-13 110 -23 15 -57 10 -68 -10z"/>
<path d="M4490 8511 c-14 -27 -13 -94 2 -109 20 -20 66 -14 79 9 14 27 6 99
-13 110 -23 15 -57 10 -68 -10z"/>
<path d="M5078 8443 c-24 -6 -32 -35 -13 -49 28 -21 63 -3 78 39 5 14 1 17
-21 16 -15 -1 -34 -3 -44 -6z"/>
<path d="M5467 8512 c-20 -22 -22 -82 -4 -104 6 -8 20 -18 30 -22 25 -8 67 36
67 71 0 62 -57 95 -93 55z"/>
<path d="M6287 8512 c-20 -22 -22 -82 -4 -104 6 -8 20 -18 30 -22 25 -8 67 36
67 71 0 62 -57 95 -93 55z"/>
<path d="M7233 8518 c-27 -35 -25 -38 33 -38 56 0 56 0 42 23 -17 25 -60 34
-75 15z"/>
<path d="M7573 8518 c-27 -35 -25 -38 33 -38 56 0 56 0 42 23 -17 25 -60 34
-75 15z"/>
<path d="M8423 8518 c-27 -35 -25 -38 33 -38 56 0 56 0 42 23 -17 25 -60 34
-75 15z"/>
<path d="M8638 8443 c-24 -6 -32 -35 -13 -49 28 -21 63 -3 78 39 5 14 1 17
-21 16 -15 -1 -34 -3 -44 -6z"/>
<path d="M9438 8443 c-24 -6 -32 -35 -13 -49 28 -21 63 -3 78 39 5 14 1 17
-21 16 -15 -1 -34 -3 -44 -6z"/>
<path d="M9773 8518 c-27 -35 -25 -38 33 -38 56 0 56 0 42 23 -17 25 -60 34
-75 15z"/>
<path d="M10473 8518 c-27 -35 -25 -38 33 -38 56 0 56 0 42 23 -17 25 -60 34
-75 15z"/>
<path d="M10898 8443 c-24 -6 -32 -35 -13 -49 28 -21 63 -3 78 39 5 14 1 17
-21 16 -15 -1 -34 -3 -44 -6z"/>
<path d="M11307 8512 c-20 -22 -22 -82 -4 -104 6 -8 20 -18 30 -22 25 -8 67
36 67 71 0 62 -57 95 -93 55z"/>
<path d="M2887 8032 c-19 -21 -22 -73 -7 -103 7 -12 21 -19 40 -19 35 0 50 23
50 74 0 59 -48 86 -83 48z"/>
<path d="M5567 8032 c-19 -21 -22 -73 -7 -103 7 -12 21 -19 40 -19 35 0 50 23
50 74 0 59 -48 86 -83 48z"/>
<path d="M6837 8032 c-19 -21 -22 -73 -7 -103 7 -12 21 -19 40 -19 35 0 50 23
50 74 0 59 -48 86 -83 48z"/>
<path d="M7986 8035 c-20 -21 -22 -98 -2 -114 8 -7 27 -11 43 -9 23 2 30 10
38 41 16 68 -37 123 -79 82z"/>
<path d="M11735 8094 c-36 -39 -36 -124 0 -160 20 -20 33 -25 67 -22 35 2 46
9 65 37 35 52 28 124 -16 158 -30 23 -89 16 -116 -13z"/>
<path d="M1568 7963 c-24 -6 -32 -35 -13 -49 28 -21 63 -3 78 39 5 14 1 17
-21 16 -15 -1 -34 -3 -44 -6z"/>
<path d="M1883 8038 c-27 -35 -25 -38 33 -38 56 0 56 0 42 23 -17 25 -60 34
-75 15z"/>
<path d="M2478 7963 c-24 -6 -32 -35 -13 -49 28 -21 63 -3 78 39 5 14 1 17
-21 16 -15 -1 -34 -3 -44 -6z"/>
<path d="M3213 8038 c-27 -35 -25 -38 33 -38 56 0 56 0 42 23 -17 25 -60 34
-75 15z"/>
<path d="M3428 7963 c-24 -6 -32 -35 -13 -49 28 -21 63 -3 78 39 5 14 1 17
-21 16 -15 -1 -34 -3 -44 -6z"/>
<path d="M4288 7963 c-24 -6 -32 -35 -13 -49 28 -21 63 -3 78 39 5 14 1 17
-21 16 -15 -1 -34 -3 -44 -6z"/>
<path d="M4873 8038 c-27 -35 -25 -38 33 -38 56 0 56 0 42 23 -17 25 -60 34
-75 15z"/>
<path d="M5788 7963 c-24 -6 -32 -35 -13 -49 28 -21 63 -3 78 39 5 14 1 17
-21 16 -15 -1 -34 -3 -44 -6z"/>
<path d="M6108 7963 c-24 -6 -32 -35 -13 -49 28 -21 63 -3 78 39 5 14 1 17
-21 16 -15 -1 -34 -3 -44 -6z"/>
<path d="M6428 7963 c-24 -6 -32 -35 -13 -49 28 -21 63 -3 78 39 5 14 1 17
-21 16 -15 -1 -34 -3 -44 -6z"/>
<path d="M7358 7963 c-24 -6 -32 -35 -13 -49 28 -21 63 -3 78 39 5 14 1 17
-21 16 -15 -1 -34 -3 -44 -6z"/>
<path d="M7560 8031 c-14 -27 -13 -94 2 -109 20 -20 66 -14 79 9 14 27 6 99
-13 110 -23 15 -57 10 -68 -10z"/>
<path d="M7778 7963 c-24 -6 -32 -35 -13 -49 28 -21 63 -3 78 39 5 14 1 17
-21 16 -15 -1 -34 -3 -44 -6z"/>
<path d="M8643 8038 c-27 -35 -25 -38 33 -38 56 0 56 0 42 23 -17 25 -60 34
-75 15z"/>
<path d="M9367 8032 c-20 -22 -22 -82 -4 -104 6 -8 20 -18 30 -22 25 -8 67 36
67 71 0 62 -57 95 -93 55z"/>
<path d="M11403 8038 c-27 -35 -25 -38 33 -38 56 0 56 0 42 23 -17 25 -60 34
-75 15z"/>
<path d="M12226 8028 c-18 -26 -21 -71 -6 -99 15 -27 64 -25 84 3 32 46 8 118
-39 118 -13 0 -31 -10 -39 -22z"/>
<path d="M13032 8038 c-26 -26 -13 -38 39 -38 51 0 51 0 37 23 -17 25 -57 34
-76 15z"/>
<path d="M13248 7963 c-18 -5 -31 -30 -22 -44 8 -13 58 -11 72 3 7 7 12 20 12
30 0 18 -22 22 -62 11z"/>
<path d="M1310 7551 c-14 -27 -13 -94 2 -109 20 -20 66 -14 79 9 14 27 6 99
-13 110 -23 15 -57 10 -68 -10z"/>
<path d="M1608 7483 c-24 -6 -32 -35 -13 -49 28 -21 63 -3 78 39 5 14 1 17
-21 16 -15 -1 -34 -3 -44 -6z"/>
<path d="M2017 7552 c-20 -22 -22 -82 -4 -104 6 -8 20 -18 30 -22 25 -8 67 36
67 71 0 62 -57 95 -93 55z"/>
<path d="M3037 6332 c-19 -21 -22 -73 -7 -103 7 -12 21 -19 40 -19 35 0 50 23
50 74 0 59 -48 86 -83 48z"/>
<path d="M3356 6335 c-20 -21 -22 -98 -2 -114 8 -7 27 -11 43 -9 23 2 30 10
38 41 16 68 -37 123 -79 82z"/>
<path d="M3947 6332 c-19 -21 -22 -73 -7 -103 7 -12 21 -19 40 -19 35 0 50 23
50 74 0 59 -48 86 -83 48z"/>
<path d="M1497 6332 c-20 -22 -22 -82 -4 -104 6 -8 20 -18 30 -22 25 -8 67 36
67 71 0 62 -57 95 -93 55z"/>
<path d="M2618 6263 c-24 -6 -32 -35 -13 -49 28 -21 63 -3 78 39 5 14 1 17
-21 16 -15 -1 -34 -3 -44 -6z"/>
<path d="M4583 6338 c-27 -35 -25 -38 33 -38 56 0 56 0 42 23 -17 25 -60 34
-75 15z"/>
<path d="M4996 6328 c-48 -67 14 -159 70 -103 42 42 22 125 -31 125 -13 0 -31
-10 -39 -22z"/>
<path d="M5206 6328 c-48 -67 14 -159 70 -103 42 42 22 125 -31 125 -13 0 -31
-10 -39 -22z"/>
<path d="M6128 6263 c-24 -6 -32 -35 -13 -49 28 -21 63 -3 78 39 5 14 1 17
-21 16 -15 -1 -34 -3 -44 -6z"/>
<path d="M7588 6263 c-24 -6 -32 -35 -13 -50 27 -19 75 5 75 38 0 19 -21 23
-62 12z"/>
<path d="M8213 6338 c-27 -35 -25 -38 33 -38 56 0 56 0 42 23 -17 25 -60 34
-75 15z"/>
<path d="M8853 6338 c-27 -35 -25 -38 33 -38 56 0 56 0 42 23 -17 25 -60 34
-75 15z"/>
<path d="M9923 6338 c-27 -35 -25 -38 33 -38 56 0 56 0 42 23 -17 25 -60 34
-75 15z"/>
<path d="M10236 6328 c-48 -67 14 -159 70 -103 42 42 22 125 -31 125 -13 0
-31 -10 -39 -22z"/>
<path d="M10873 6338 c-27 -35 -25 -38 33 -38 56 0 56 0 42 23 -17 25 -60 34
-75 15z"/>
<path d="M11098 6263 c-24 -6 -32 -35 -13 -50 27 -19 75 5 75 38 0 19 -21 23
-62 12z"/>
<path d="M11898 6263 c-24 -6 -32 -35 -13 -50 27 -19 75 5 75 38 0 19 -21 23
-62 12z"/>
<path d="M12233 6338 c-27 -35 -25 -38 33 -38 56 0 56 0 42 23 -17 25 -60 34
-75 15z"/>
<path d="M7996 6334 c-18 -18 -21 -76 -6 -105 13 -23 53 -25 74 -3 9 9 16 32
16 54 0 42 -20 70 -50 70 -10 0 -26 -7 -34 -16z"/>
<path d="M1334 5093 c-12 -2 -32 -15 -45 -29 l-24 -26 0 -379 0 -379 28 -27
27 -28 1910 0 1910 0 27 28 28 27 0 380 0 380 -28 27 -27 28 -1893 1 c-1040 1
-1902 -1 -1913 -3z m826 -299 c11 -12 11 -18 -2 -30 -18 -18 -48 -8 -48 16 0
16 11 27 31 29 4 1 12 -6 19 -15z m850 -119 l0 -135 -30 0 -30 0 0 135 0 135
30 0 30 0 0 -135z m90 0 l0 -135 -30 0 -30 0 0 135 0 135 30 0 30 0 0 -135z
m-1175 113 c2 -7 15 -49 28 -93 l24 -80 28 93 c27 88 30 92 57 92 16 0 28 -5
28 -12 0 -7 -19 -66 -42 -131 l-41 -118 -31 3 c-30 3 -32 7 -73 123 -23 66
-42 123 -42 128 -1 12 59 8 64 -5z m2095 -105 c24 -65 45 -124 48 -130 3 -9
-6 -13 -27 -13 -24 0 -32 5 -37 25 -5 22 -11 25 -54 25 -43 0 -49 -3 -54 -25
-5 -20 -13 -25 -37 -25 -17 0 -29 4 -27 8 2 5 23 63 48 130 41 114 46 122 71
122 24 0 29 -8 69 -117z m256 84 c52 -61 12 -137 -72 -137 l-44 0 0 -45 c0
-43 -1 -45 -30 -45 l-30 0 0 131 0 131 76 -4 c69 -3 79 -6 100 -31z m114 -97
l0 -130 -30 0 -30 0 0 123 c0 68 3 127 7 130 3 4 17 7 30 7 23 0 23 0 23 -130z
m-2066 56 c23 -9 37 -24 45 -46 19 -57 17 -60 -49 -60 -61 0 -72 -7 -44 -31
12 -10 22 -10 44 -2 28 10 50 2 50 -20 0 -13 -67 -37 -87 -31 -41 13 -61 28
-72 51 -25 54 -4 118 44 139 37 16 30 16 69 0z m534 3 c37 -13 52 -49 52 -130
l0 -59 -47 0 c-27 0 -56 0 -67 0 -25 -1 -56 29 -56 55 0 30 30 55 74 62 21 3
35 11 33 17 -5 14 -47 21 -47 7 0 -6 -11 -11 -25 -11 -43 0 -28 45 21 60 16 4
29 9 30 9 1 1 15 -4 32 -10z m487 -3 c41 -17 55 -42 55 -95 0 -72 -55 -110
-128 -87 -26 9 -52 54 -52 90 0 40 22 78 55 92 37 16 30 16 70 0z m395 -21 c0
-18 -6 -24 -27 -27 -27 -3 -28 -5 -31 -70 -3 -65 -4 -68 -27 -68 -25 0 -25 1
-25 95 l0 95 40 -2 c22 -1 43 2 46 5 12 11 24 -3 24 -28z m823 7 c9 -8 17 -21
17 -29 0 -15 -46 -18 -55 -3 -9 14 -47 12 -43 -2 2 -6 17 -16 34 -21 63 -20
83 -67 45 -101 -38 -34 -141 -13 -141 29 0 17 45 21 55 5 9 -14 58 -13 53 2
-2 6 -23 18 -47 26 -67 22 -76 82 -17 107 34 15 72 10 99 -13z m-2393 -77 l0
-95 -30 0 -30 0 0 95 0 95 30 0 30 0 0 -95z m276 50 c3 -25 10 -45 14 -45 4 0
13 21 19 46 10 38 15 45 33 42 17 -2 26 -15 38 -58 l16 -55 10 55 c8 50 12 55
37 58 25 3 27 1 22 -20 -43 -170 -40 -163 -67 -166 -23 -3 -27 2 -38 47 -7 28
-15 49 -20 46 -4 -2 -13 -25 -19 -50 -10 -38 -15 -45 -36 -45 -26 0 -23 -6
-58 133 l-15 57 28 0 c26 0 29 -4 36 -45z m1034 -17 c0 -71 9 -92 36 -86 16 3
19 14 22 76 l3 72 29 0 30 0 0 -95 0 -95 -47 0 c-27 -1 -59 -1 -72 -1 -39 -1
-51 26 -51 113 0 77 0 78 25 78 24 0 25 -3 25 -62z"/>
<path d="M3933 4675 c-11 -34 -11 -35 17 -35 28 0 28 1 17 35 -6 19 -13 35
-17 35 -4 0 -11 -16 -17 -35z"/>
<path d="M4160 4715 c0 -36 0 -36 38 -33 34 3 37 6 37 33 0 27 -3 30 -37 33
-38 3 -38 3 -38 -33z"/>
<path d="M2267 4684 c-15 -15 -6 -24 24 -24 20 0 29 4 27 13 -5 14 -40 21 -51
11z"/>
<path d="M2800 4599 c0 -15 5 -20 22 -17 34 5 37 38 4 38 -20 0 -26 -5 -26
-21z"/>
<path d="M3284 4676 c-3 -8 -4 -31 -2 -52 3 -34 6 -39 28 -39 32 0 49 42 32
80 -13 27 -49 34 -58 11z"/>
<path d="M17682 6778 l3 -1202 1430 -826 1430 -826 3 1195 c2 948 -1 1198 -10
1207 -13 11 -2847 1654 -2854 1654 -2 0 -3 -541 -2 -1202z m667 203 c25 -16 4
-41 -34 -41 -19 0 -35 -5 -35 -11 0 -6 19 -46 43 -89 30 -57 39 -82 31 -90
-21 -21 -40 1 -91 104 -58 117 -57 122 17 129 25 2 47 4 50 5 3 1 11 -2 19 -7z
m257 -197 c133 -76 157 -95 137 -115 -7 -7 -58 16 -154 71 -79 45 -145 83
-147 85 -8 7 7 35 18 35 6 0 71 -34 146 -76z m343 -208 c53 -30 116 -64 139
-76 47 -25 61 -45 44 -62 -8 -8 -48 10 -139 60 -158 87 -168 95 -160 116 4 9
9 16 13 16 3 0 49 -24 103 -54z m-346 -43 c138 -76 160 -94 139 -115 -7 -7
-53 14 -149 67 -76 42 -142 81 -147 85 -9 9 -1 40 11 40 4 0 70 -35 146 -77z
m724 -162 c67 -38 89 -66 60 -77 -19 -7 -167 73 -167 90 0 37 25 34 107 -13z
m-324 -77 c128 -72 157 -97 123 -110 -20 -8 -290 147 -294 169 -6 31 31 18
171 -59z m-355 -39 c95 -53 120 -79 89 -91 -16 -6 -287 146 -295 165 -10 27
22 31 63 7 22 -13 86 -49 143 -81z m987 -74 c124 -73 155 -104 122 -117 -17
-6 -277 144 -285 165 -4 11 14 31 28 30 3 0 63 -35 135 -78z m-309 -62 c52
-28 74 -46 74 -60 0 -29 -26 -23 -107 21 -67 37 -84 56 -66 73 11 12 24 8 99
-34z m-352 -61 c139 -77 166 -96 166 -114 0 -26 -33 -14 -171 64 -96 53 -139
82 -139 95 0 29 28 20 144 -45z m-359 -24 c126 -71 155 -97 122 -110 -19 -7
-291 148 -295 169 -6 32 36 18 173 -59z m710 -166 c72 -40 94 -69 63 -81 -13
-4 -131 55 -157 79 -15 13 -9 44 9 44 5 0 44 -19 85 -42z m-325 -66 c80 -46
136 -84 138 -94 6 -32 -28 -20 -170 59 -96 54 -138 83 -138 95 0 31 31 20 170
-60z m-228 -192 c66 -121 65 -127 -27 -132 -54 -3 -60 -1 -60 17 0 16 8 21 38
23 20 2 37 6 37 9 0 4 -20 44 -45 90 -25 46 -43 88 -39 94 15 25 43 -4 96
-101z m-156 89 c10 -17 -16 -36 -75 -53 -72 -21 -93 -21 -89 2 2 11 25 25 63
39 68 25 91 28 101 12z m851 -164 c119 -74 221 -141 225 -149 5 -8 2 -19 -7
-26 -11 -9 -47 8 -187 96 -244 151 -278 174 -278 189 0 11 6 16 27 24 1 1 100
-60 220 -134z"/>
<path d="M13867 5387 c-273 -158 -344 -204 -335 -213 7 -7 124 -76 260 -154
l248 -142 494 284 493 283 -91 54 c-50 29 -97 56 -103 58 -10 4 -13 -18 -13
-88 l0 -94 -58 -32 -58 -32 -45 26 c-34 21 -55 26 -96 24 -48 -2 -96 12 -134
40 -12 9 -25 6 -63 -16 l-47 -28 80 -44 c85 -47 99 -59 83 -75 -9 -9 -59 17
-296 153 -57 33 -82 59 -55 59 7 0 48 -18 91 -40 l77 -41 -15 48 c-8 26 -22
74 -32 105 -9 32 -22 60 -28 62 -6 2 -167 -86 -357 -197z m202 -57 c39 -22 73
-40 76 -40 13 0 205 -113 205 -121 0 -27 -39 -14 -146 47 -66 37 -143 80 -171
96 -29 16 -53 36 -53 44 0 21 12 18 89 -26z m-44 -140 c127 -68 175 -98 175
-110 0 -23 -45 -5 -195 81 -177 100 -180 102 -170 119 5 7 20 3 48 -13 23 -14
87 -48 142 -77z"/>
<path d="M17457 5072 c-53 -32 -98 -61 -99 -67 -1 -5 43 -36 96 -68 54 -31 96
-51 93 -44 -3 8 1 14 9 14 7 0 11 -4 8 -9 -10 -16 10 -7 97 43 85 49 109 68
72 55 -17 -5 -17 -5 -1 6 15 11 8 17 -50 51 -37 21 -80 47 -97 57 l-30 18 -98
-56z m233 -97 c0 -2 -10 -9 -22 -15 -22 -11 -22 -10 -4 4 21 17 26 19 26 11z
m-70 -40 c0 -2 -10 -9 -22 -15 -22 -11 -22 -10 -4 4 21 17 26 19 26 11z"/>
<path d="M17706 4927 c-49 -29 -91 -57 -93 -64 -3 -8 139 -99 188 -121 9 -4
209 110 209 119 0 9 -189 119 -204 119 -6 -1 -51 -24 -100 -53z m294 -62 c0
-2 -10 -9 -22 -15 -22 -11 -22 -10 -4 4 21 17 26 19 26 11z m-70 -40 c0 -2
-10 -9 -22 -15 -22 -11 -22 -10 -4 4 21 17 26 19 26 11z m-70 -40 c0 -2 -10
-9 -22 -15 -22 -11 -22 -10 -4 4 21 17 26 19 26 11z"/>
<path d="M17326 4857 c-49 -28 -91 -57 -93 -63 -2 -6 41 -37 96 -68 l99 -57
101 58 c55 32 101 61 101 65 0 8 -188 118 -203 118 -7 0 -52 -24 -101 -53z
m274 -72 c0 -2 -10 -9 -22 -15 -22 -11 -22 -10 -4 4 21 17 26 19 26 11z m-70
-40 c0 -2 -10 -9 -22 -15 -22 -11 -22 -10 -4 4 21 17 26 19 26 11z m-75 -45
c-3 -5 -12 -10 -18 -10 -7 0 -6 4 3 10 19 12 23 12 15 0z"/>
<path d="M16961 4782 c-52 -31 -96 -61 -97 -67 -4 -12 184 -121 200 -117 32
10 195 109 192 117 -2 9 -183 123 -196 124 -3 0 -47 -25 -99 -57z m289 -66 c0
-2 -7 -7 -16 -10 -8 -3 -12 -2 -9 4 6 10 25 14 25 6z m-40 -21 c0 -2 -10 -9
-22 -15 -22 -11 -22 -10 -4 4 21 17 26 19 26 11z m-70 -40 c0 -2 -10 -9 -22
-15 -22 -11 -22 -10 -4 4 21 17 26 19 26 11z"/>
<path d="M17965 4790 c-90 -54 -108 -68 -100 -79 6 -10 180 -111 191 -111 11
0 204 110 204 117 0 3 -7 3 -14 0 -10 -4 -13 -1 -10 7 3 8 -28 32 -84 64 -49
29 -93 52 -98 51 -5 0 -45 -22 -89 -49z m255 -85 c0 -2 -13 -11 -30 -20 -38
-19 -40 -11 -2 9 31 17 32 18 32 11z m-70 -40 c0 -2 -10 -9 -22 -15 -22 -11
-22 -10 -4 4 21 17 26 19 26 11z m-75 -45 c-3 -5 -12 -10 -18 -10 -7 0 -6 4 3
10 19 12 23 12 15 0z"/>
<path d="M17575 4714 c-49 -29 -91 -57 -93 -62 -3 -11 193 -126 206 -120 52
22 190 112 186 121 -6 15 -178 117 -196 116 -7 0 -53 -25 -103 -55z m265 -79
c0 -2 -10 -9 -22 -15 -22 -11 -22 -10 -4 4 21 17 26 19 26 11z m-70 -40 c0 -2
-10 -9 -22 -15 -22 -11 -22 -10 -4 4 21 17 26 19 26 11z"/>
<path d="M17210 4638 c-84 -50 -100 -62 -89 -73 28 -26 191 -116 186 -102 -3
7 1 14 9 14 7 0 11 -4 8 -9 -3 -4 -3 -8 0 -8 12 0 187 103 182 107 -2 3 -14 0
-25 -7 -12 -6 -21 -8 -21 -6 0 3 11 11 24 18 24 13 22 15 -73 69 l-99 56 -102
-59z m240 -93 c0 -2 -10 -9 -22 -15 -22 -11 -22 -10 -4 4 21 17 26 19 26 11z
m-70 -40 c0 -2 -10 -9 -22 -15 -22 -11 -22 -10 -4 4 21 17 26 19 26 11z"/>
<path d="M18211 4641 c-52 -31 -96 -61 -98 -66 -4 -14 194 -128 208 -119 8 5
8 8 -1 14 -8 5 -7 9 5 13 9 4 13 3 10 -3 -11 -18 6 -11 91 38 46 26 82 51 81
57 -3 9 -54 41 -152 95 l-50 28 -94 -57z m269 -76 c0 -2 -10 -9 -22 -15 -22
-11 -22 -10 -4 4 21 17 26 19 26 11z m-70 -40 c0 -2 -10 -9 -22 -15 -22 -11
-22 -10 -4 4 21 17 26 19 26 11z"/>
<path d="M17828 4572 c-54 -31 -98 -60 -98 -64 0 -9 184 -118 200 -118 6 0 44
19 83 41 121 70 120 69 107 85 -11 12 -182 114 -191 114 -2 0 -48 -26 -101
-58z m291 -66 c-2 -2 -15 -9 -29 -15 -24 -11 -24 -11 -6 3 16 13 49 24 35 12z
m-59 -31 c0 -2 -10 -9 -22 -15 -22 -11 -22 -10 -4 4 21 17 26 19 26 11z m-70
-40 c0 -2 -10 -9 -22 -15 -22 -11 -22 -10 -4 4 21 17 26 19 26 11z"/>
<path d="M17458 4494 c-54 -30 -98 -58 -98 -62 0 -4 268 -164 596 -354 l596
-347 99 57 c54 31 99 61 99 67 -1 10 -1157 687 -1183 693 -6 1 -56 -23 -109
-54z m1142 -719 c0 -2 -10 -9 -22 -15 -22 -11 -22 -10 -4 4 21 17 26 19 26 11z"/>
<path d="M18455 4494 c-49 -29 -91 -57 -92 -61 -1 -4 41 -34 94 -65 89 -52 98
-55 111 -40 7 9 11 11 7 5 -10 -21 3 -16 96 38 82 46 113 70 73 55 -14 -5 -15
-4 -5 7 9 12 -5 24 -78 66 -49 28 -95 51 -102 50 -8 0 -54 -25 -104 -55z m265
-79 c0 -2 -10 -9 -22 -15 -22 -11 -22 -10 -4 4 21 17 26 19 26 11z m-70 -40
c0 -2 -10 -9 -22 -15 -22 -11 -22 -10 -4 4 21 17 26 19 26 11z"/>
<path d="M18084 4430 c-54 -32 -99 -61 -101 -66 -2 -5 18 -21 45 -36 26 -15
71 -41 101 -59 33 -19 52 -25 48 -17 -3 8 1 15 9 15 7 0 11 -4 8 -9 -10 -15 6
-8 96 43 83 47 114 70 74 55 -14 -5 -15 -4 -5 8 9 11 -6 24 -82 68 l-94 55
-99 -57z m236 -95 c0 -2 -10 -9 -22 -15 -22 -11 -22 -10 -4 4 21 17 26 19 26
11z m-70 -40 c0 -2 -10 -9 -22 -15 -22 -11 -22 -10 -4 4 21 17 26 19 26 11z"/>
<path d="M18720 4360 c-47 -28 -87 -55 -88 -60 -2 -6 -8 -8 -13 -4 -5 3 -9 1
-9 -4 0 -10 185 -122 201 -122 11 0 188 100 194 109 2 4 1 12 -3 17 -8 11
-180 114 -190 114 -4 0 -45 -23 -92 -50z m270 -75 c0 -2 -10 -9 -22 -15 -22
-11 -22 -10 -4 4 21 17 26 19 26 11z m-50 -30 c0 -2 -13 -11 -30 -20 -38 -19
-40 -11 -2 9 31 17 32 18 32 11z m-70 -40 c0 -2 -10 -9 -22 -15 -22 -11 -22
-10 -4 4 21 17 26 19 26 11z"/>
<path d="M18336 4287 c-49 -29 -91 -57 -93 -64 -3 -9 174 -123 192 -123 3 0
50 25 104 57 93 52 98 57 82 73 -18 20 -173 110 -187 110 -5 -1 -49 -24 -98
-53z m284 -71 c0 -2 -7 -7 -16 -10 -8 -3 -12 -2 -9 4 6 10 25 14 25 6z m-60
-31 c0 -2 -10 -9 -22 -15 -22 -11 -22 -10 -4 4 21 17 26 19 26 11z m-70 -40
c0 -2 -10 -9 -22 -15 -22 -11 -22 -10 -4 4 21 17 26 19 26 11z"/>
<path d="M18948 4211 c-54 -31 -98 -61 -98 -67 0 -7 44 -37 99 -68 l98 -56
101 57 c56 32 102 61 102 64 0 6 -68 48 -175 109 l-30 17 -97 -56z m272 -76
c0 -2 -10 -9 -22 -15 -22 -11 -22 -10 -4 4 21 17 26 19 26 11z m-70 -40 c0 -2
-10 -9 -22 -15 -22 -11 -22 -10 -4 4 21 17 26 19 26 11z m-75 -45 c-3 -5 -12
-10 -18 -10 -7 0 -6 4 3 10 19 12 23 12 15 0z"/>
<path d="M18590 4147 c-47 -28 -91 -56 -97 -63 -10 -10 8 -24 85 -68 54 -31
102 -56 107 -56 12 0 205 110 205 117 0 3 -7 3 -14 0 -9 -4 -13 -1 -11 6 4 11
-165 118 -183 116 -4 0 -45 -23 -92 -52z m260 -82 c0 -2 -13 -11 -30 -20 -38
-19 -40 -11 -2 9 31 17 32 18 32 11z m-70 -40 c0 -2 -10 -9 -22 -15 -22 -11
-22 -10 -4 4 21 17 26 19 26 11z m-75 -45 c-3 -5 -12 -10 -18 -10 -7 0 -6 4 3
10 19 12 23 12 15 0z"/>
<path d="M19195 4065 c-49 -30 -91 -58 -93 -63 -1 -5 42 -35 98 -67 l100 -57
100 57 c90 51 127 77 84 61 -13 -5 -14 -4 -6 7 9 10 -8 24 -79 65 -50 29 -96
52 -103 51 -6 0 -51 -25 -101 -54z m265 -80 c0 -2 -13 -11 -30 -20 -38 -19
-40 -11 -2 9 31 17 32 18 32 11z m-70 -40 c0 -2 -10 -9 -22 -15 -22 -11 -22
-10 -4 4 21 17 26 19 26 11z"/>
<path d="M18813 3994 c-51 -30 -93 -59 -93 -63 0 -4 45 -33 100 -65 l99 -57
101 57 c55 31 99 59 96 61 -2 3 -15 -1 -28 -7 l-23 -11 23 18 22 18 -90 53
c-49 28 -95 52 -102 52 -7 -1 -55 -26 -105 -56z m247 -89 c0 -2 -10 -9 -22
-15 -22 -11 -22 -10 -4 4 21 17 26 19 26 11z m-70 -40 c0 -2 -10 -9 -22 -15
-22 -11 -22 -10 -4 4 21 17 26 19 26 11z"/>
<path d="M19448 3923 c-54 -31 -98 -60 -98 -65 0 -9 184 -118 200 -118 7 0 55
25 107 56 78 46 92 58 82 70 -10 12 -180 114 -190 114 -2 0 -48 -26 -101 -57z
m282 -68 c0 -2 -10 -9 -22 -15 -22 -11 -22 -10 -4 4 21 17 26 19 26 11z m-70
-40 c0 -2 -10 -9 -22 -15 -22 -11 -22 -10 -4 4 21 17 26 19 26 11z m-70 -40
c0 -2 -10 -9 -22 -15 -22 -11 -22 -10 -4 4 21 17 26 19 26 11z"/>
<path d="M19080 3860 c-47 -28 -87 -55 -88 -60 -2 -6 -8 -8 -13 -4 -5 3 -9 1
-9 -3 0 -16 194 -123 201 -111 4 6 8 7 10 0 4 -9 158 73 181 96 6 6 4 15 -6
25 -18 17 -171 107 -183 107 -4 0 -46 -23 -93 -50z m279 -74 c-2 -2 -15 -9
-29 -15 -24 -11 -24 -11 -6 3 16 13 49 24 35 12z m-59 -31 c0 -2 -10 -9 -22
-15 -22 -11 -22 -10 -4 4 21 17 26 19 26 11z m-70 -40 c0 -2 -10 -9 -22 -15
-22 -11 -22 -10 -4 4 21 17 26 19 26 11z"/>
<path d="M18708 3781 c-54 -31 -98 -61 -98 -67 0 -12 188 -127 200 -122 29 13
200 114 200 119 0 6 -57 41 -175 109 l-30 17 -97 -56z m252 -86 c0 -2 -10 -9
-22 -15 -22 -11 -22 -10 -4 4 21 17 26 19 26 11z m-70 -40 c0 -2 -10 -9 -22
-15 -22 -11 -22 -10 -4 4 21 17 26 19 26 11z m-55 -35 c-3 -5 -12 -10 -18 -10
-7 0 -6 4 3 10 19 12 23 12 15 0z"/>
<path d="M18964 3642 c-129 -75 -128 -69 -14 -135 53 -31 100 -57 104 -57 4 0
51 25 105 57 92 52 98 57 82 73 -19 20 -174 110 -187 109 -5 0 -45 -21 -90
-47z m276 -76 c0 -2 -7 -7 -16 -10 -8 -3 -12 -2 -9 4 6 10 25 14 25 6z m-60
-31 c0 -2 -10 -9 -22 -15 -22 -11 -22 -10 -4 4 21 17 26 19 26 11z m-70 -40
c0 -2 -10 -9 -22 -15 -22 -11 -22 -10 -4 4 21 17 26 19 26 11z"/>
</g>
</svg>
